/* XPM */
static char *exit1685651226[] = {
/* columns rows colors chars-per-pixel */
"64 64 256 2 ",
"   c #020202",
".  c #0B0202",
"X  c #010A02",
"o  c #02020B",
"O  c #0A010B",
"+  c #040B0E",
"@  c #090A06",
"#  c #150202",
"$  c #010313",
"%  c #010C1B",
"&  c #0C0E19",
"*  c #040915",
"=  c #031219",
"-  c #0E1208",
";  c #2F0708",
":  c #250701",
">  c #380707",
",  c #220D16",
"<  c #020A24",
"1  c #041524",
"2  c #041931",
"3  c #0F122A",
"4  c #0E293E",
"5  c #0A2439",
"6  c #311F2B",
"7  c #430302",
"8  c #490506",
"9  c #50070F",
"0  c #7B0D0B",
"q  c #790D14",
"w  c #7B1213",
"e  c #74121A",
"r  c #77130D",
"t  c #711D26",
"y  c #5D2A39",
"u  c #0D2A49",
"i  c #112656",
"p  c #183957",
"a  c #13304E",
"s  c #24385B",
"d  c #273869",
"f  c #0C225F",
"g  c #4E3449",
"h  c #1D4156",
"j  c #1D464C",
"k  c #23425C",
"l  c #1C476A",
"z  c #2A5778",
"x  c #305071",
"c  c #2C6579",
"v  c #4B4F60",
"b  c #891317",
"n  c #9F121A",
"m  c #951617",
"M  c #8F0F0D",
"N  c #A21519",
"B  c #AB1213",
"V  c #A92F14",
"C  c #A01723",
"Z  c #D91B18",
"A  c #C31D11",
"S  c #FF0F0C",
"D  c #FD170E",
"F  c #FF0E19",
"G  c #EA1819",
"H  c #FD1514",
"J  c #FC1814",
"K  c #FE151B",
"L  c #FD1A1C",
"P  c #F41B19",
"I  c #E5110E",
"U  c #D52C18",
"Y  c #F8280C",
"T  c #F8360A",
"R  c #FC2915",
"E  c #FB3313",
"W  c #FC3819",
"Q  c #EC2E14",
"!  c #D11B22",
"~  c #FB1623",
"^  c #E81A27",
"/  c #D82825",
"(  c #F12422",
")  c #AF6C14",
"_  c #FE4D02",
"`  c #FE4C0C",
"'  c #FE4606",
"]  c #ED5A05",
"[  c #F45501",
"{  c #FD5202",
"}  c #FB5B01",
"|  c #FE520B",
" . c #FA590D",
".. c #F55A00",
"X. c #FC4817",
"o. c #F75714",
"O. c #F86506",
"+. c #FC7302",
"@. c #FA7806",
"#. c #FF7913",
"$. c #E96200",
"%. c #FE5F22",
"&. c #7FBF37",
"*. c #70A962",
"=. c #89BB33",
"-. c #ADAA19",
";. c #ED8803",
":. c #FF8503",
">. c #FC8A01",
",. c #FF830D",
"<. c #FD8A0A",
"1. c #F48703",
"2. c #F69D04",
"3. c #F89303",
"4. c #FE8514",
"5. c #F2940B",
"6. c #FAA605",
"7. c #F9B505",
"8. c #F4AE0D",
"9. c #AFFF1D",
"0. c #ACFE2D",
"q. c #A6FF2B",
"w. c #B6FE2A",
"e. c #ABFF34",
"r. c #ACFF39",
"t. c #A6FD3A",
"y. c #B2FE32",
"u. c #B6FB39",
"i. c #A7E029",
"p. c #F5C507",
"a. c #FBC706",
"s. c #F7D509",
"d. c #F2D00C",
"f. c #C7FD1A",
"g. c #D1FC1F",
"h. c #D9FB17",
"j. c #D7FD0C",
"k. c #FCEB0C",
"l. c #ECFE03",
"z. c #E7FC08",
"x. c #F3FE02",
"c. c #FAFD03",
"v. c #F4FD0B",
"b. c #F9F507",
"n. c #FAE917",
"m. c #E6FC15",
"M. c #F5F916",
"N. c #EBE914",
"B. c #C9FC25",
"V. c #D3F82B",
"C. c #F0E926",
"Z. c #98FB4B",
"A. c #A8FC45",
"S. c #A7FA54",
"D. c #B2F44C",
"F. c #8BE86B",
"G. c #8DE775",
"H. c #95E677",
"J. c #92EE69",
"K. c #93DC78",
"L. c #C1F940",
"P. c #193D94",
"I. c #253C91",
"U. c #273FA1",
"Y. c #1B4494",
"T. c #244399",
"R. c #325988",
"E. c #39648F",
"W. c #386186",
"Q. c #356792",
"!. c #294FB2",
"~. c #3673A0",
"^. c #49759A",
"/. c #4A7094",
"(. c #4879A5",
"). c #447BB3",
"_. c #465F88",
"`. c #1C59C9",
"'. c #1D58D3",
"]. c #2658C9",
"[. c #274FD4",
"{. c #2455D4",
"}. c #2D53DB",
"|. c #2556D7",
" X c #2A4CC5",
".X c #337FDF",
"XX c #2A72D8",
"oX c #195EE3",
"OX c #327AE4",
"+X c #2B5DDD",
"@X c #407DD6",
"#X c #3C84A5",
"$X c #5886AC",
"%X c #4A89B5",
"&X c #568AB6",
"*X c #4693BA",
"=X c #5897BC",
"-X c #4A87A8",
";X c #569C98",
":X c #73D096",
">X c #72CBAC",
",X c #77C8A6",
"<X c #6CCEAC",
"1X c #3994DA",
"2X c #348CC8",
"3X c #3995E9",
"4X c #388CEC",
"5X c #3FA8DF",
"6X c #538EC0",
"7X c #588BC0",
"8X c #5599C5",
"9X c #539AD5",
"0X c #4B95CB",
"qX c #649BC9",
"wX c #56B5D8",
"eX c #53A9D2",
"rX c #66A9DE",
"tX c #69A7D8",
"yX c #6CAFD5",
"uX c #4298E7",
"iX c #4B99EF",
"pX c #4DAAE6",
"aX c #56ACE8",
"sX c #47B3E8",
"dX c #58B5EA",
"fX c #4AAEF2",
"gX c #4CACFD",
"hX c #45A9F9",
"jX c #58ADF6",
"kX c #4AB1F4",
"lX c #48B2FA",
"zX c #5DB3F4",
"xX c #5DB4FB",
"cX c #5DBAFD",
"vX c #57B5F8",
"bX c #64AEEB",
"nX c #6AADE7",
"mX c #64B2EE",
"MX c #6BB3EC",
"NX c #67B4E6",
"BX c #74B3EA",
"VX c #67AEF7",
"CX c #64B5F5",
"ZX c #6AB4F3",
"AX c #6BBAF5",
"SX c #63B6FB",
"DX c #6AB5FB",
"FX c #64B9FC",
"GX c #6ABAFB",
"HX c #64BBF4",
"JX c #73B7F7",
"KX c #74AAE9",
"LX c #66C0FC",
"PX c #5DC1FD",
"IX c #8AE283",
"UX c #8DDC87",
/* pixels */
"CXCXCXCXCXSXCXCXCXCXHXCXCXCXCXSXHXCXFXxXcXcXxXCXxXxXSXcXzXSXcXzXSXFXFXcXCXcXSXcXcXxXxXHXSXSXSXcXCXCXCXCXSXCXCXCXCXCXCXCXCXCXCXSX",
"CXCXCXCXCXCXHXCXCXCXCXSXCXCXCXCXCXCXCXCXzXSXCXCXCXCXCXCXCXCXCXCXHXCXCXCXCXCXCXCXFXCXCXCXCXZXCXZXCXCXCXCXHXCXCXCXCXCXCXSXCXCXCXCX",
"CXCXCXCXCXCXCXCXSXCXCXCXCXSXCXCXCXCXCXZXmXCXCXzXHXZXMXZXAXmXZXZXmXCXmXmXCXZXmXmXCXbXCXCXCXZXmXmXCXCXCXHXCXCXCXCXSXCXCXCXCXSXCXCX",
"SXCXCXSXCXCXSXCXCXCXCXCXCXHXCXCXCXCXmXCXGXCXCXSXCXSXCXCXSXCXCXCXCXCXCXCXCXCXCXCXCXAXHXFXzXCXmXmXCXCXCXCXCXCXSXCXCXCXCXHXCXCXHXCX",
"CXCXCXCXCXHXCXCXCXCXCXCXCXCXCXCXSXzXCXmXZXCXzXxXzXcXxXxXxXCXxXxXxXSXxXCXCXxXcXSXmXGXcXFXjXFXCXAXCXSXCXCXCXCXCXCXCXCXCXCXCXCXCXCX",
"CXCXCXCXCXSXCXHXCXCXSXCXCXCXCXSXcXcXAXnX9XtXrXnXrXrXrXrXnXrXrXrXnXrXrXrXrXrXrXrXtXtX9XGXcXFXCXzXCXCXCXCXCXSXCXCXCXCXSXCXCXCXCXSX",
"CXCXCXCXCXCXCXCXCXCXCXCXSXHXCXCXcXzXyXQ.a 4 4 4 4 4 4 4 4 4 4 4 5 5 5 5 5 5 5 5 5 u p 6XZXCXCXCXCXCXHXCXCXCXCXCXCXHXCXCXSXCXCXCX",
"CXCXSXCXCXCXCXHXSXHXCXCXCXCXCXCXcXmXKXx o       .   . .     . .       .   .     . o < -XBXCXzXcXCXCXSXCXCXCXHXSXSXCXCXCXCXHXCXCX",
"SXHXCXCXCXSXCXCXZXCXDXSXcXSXDXcXCXxXJXx X o .                                       $ &XJXCXvXcXGXkXPXCXCXDXZXdXCXCXHXCXSXCXCXCX",
"CXCXCXCXCXHXCXCXDXSXVXSXFXmXyXNXBXaXtXx @     X                                     & -XbXJXMXKXyXHXcXCXbXDXVXCXCXCXCXCXCXCXCXCX",
"CXCXCXCXCXCXCXCXzXSXSXDXmX(.k k s l s y b m b m n C N N n n n N n N n n N n n n m n b g l k s d l 8XCXDXZXAXDXSXCXCXSXCXHXCXCXCX",
"CXCXCXCXSXCXCXCXdXHXCXVXnXx O     O # m ~ ~ ~ K K K K K J J J J J K J J K K K K ~ K G 9 X o     * &XVXVXmXmXCXzXCXCXCXCXCXCXCXSX",
"SXCXCXCXCXCXCXCXdXcXxXFXAXz $     X   M ~ H J S J H P J J J D J J D J J J J P H S S P 7   X     $ 6XPXSXzXdXHXAXCXCXCXCXCXCXCXCX",
"CXCXCXCXCXCXCXSXDXFXxXvXNXx $       # M ( P P L K K K K K J H P H H J K L H L L P P Z 8         , -XdXvXHXdXCXJXCXCXCXCXSXCXCXCX",
"CXCXCXCXCXCXCXCXDXCX6XR.c y e q q e M A W W R R W E E E E E E E E E E E E E W E E E W m e q q q w v c Q.tXjXCXZXSXCXSXCXCXCXCXCX",
"CXCXSXHXCXCXCXCXZXnXW.O ; M P D H P P T ' _ [ [ _ _ { _ { { { { { _ { _ _ _ _ _ { { ' Y ( J L K ^ 8   2 &XGXcXCXCXCXCXCXHXCXSXCX",
"cXCXNXmXHXxXmXZXVXxXR.X O b F F F F L W ` [ } { ` [ [ { ` _ { { [ _ _ | | ` { ] { { X.R H K F K G > X < 0XHXBXVXSXCXCXCXCXCXCXCX",
"CXAXMXCXCXxXZXMXZXHXc   . w R L H H J W ` { { { ` { ..[ _ ` { { | _ _ [ [ _ ` | { _ X.Y H H L H Z 8 . < *XdXMXcXCXDXCXCXCXxXCXSX",
"cXZXmXCXxXCXZX8X=X*Xv 7 7 M Y Q Y Y Y T _ { } } } +.;.@.@.@.+.@.+.+.+.@.+.O.{ { { _ ` Y Y J Y Q U r 7 9 /.=X=XzXCXCXCXCXCXCXCXCX",
"CXCXmXCXxXCXbX~.= 1 e A / Q ` ` ' ` [ ` { { +.,.5.d.N.v.M.n.n.C.n.n.k.k.n.7.;.4.} ..[ _ ` ` ` | T U ! ! 6 = 1 $XCXCXCXCXSXCXCXCX",
"CXmXmXSXxXSXnXl     M S K Y ' { _ ` { { { { +.4.;.s.M.l.x.c.c.v.x.c.x.l.b.7.1.,.O.{ { { { { _ { _ R F ~ > . @ $XSXCXCXCXCXCXCXCX",
"CXCXCXFXcXzXNXR..   M J P T _ _ ` | [ | ` { +.1.3.a.v.x.l.x.x.x.x.x.x.v.b.7.:.:.O.{ { _ { { _ _ _ Y F ^ ;   o *XCXCXCXCXCXCXCXCX",
"CXCXCXCXcXzXBXz O o w P P X.{ { { ..] } { } ;.2.2.s.m.m.M.M.v.x.m.M.m.m.N.7.2.3.O.] [ [ } } { _ | Q F Z : X $ %XCXHXCXCXCXCXCXSX",
"CXZXCXxXcXCXBXl O X 0 J J Q { _ +.@.@.:.@.,.7.N.C.V.w.w.u.y.w.w.f.B.w.9.f.h.N.k.4.,.,.,.@.@.O..._ J F / : . O %XCXCXSXCXCXHXCXCX",
"CXdXHXcXMXaXdXx   . q K S T ..$.+.>.3.3.<.;.s.x.x.V.r.t.e.t.t.u.q.t.q.t.t.h.x.M.6.3.:.:.>.:.O.{ [ R J I >   $ -XHXFXcXcXCXZXZXHX",
"zXdXCXvXmXAXLXx     e ~ K T { | O.4.>.:.:.>.a.c.l.B.e.q.e.q.q.y.e.u.0.q.y.j.c.b.8.;.:.:.:.,.O.X.X.L L ^ >   % *XAXCXxXxXCXDXCXCX",
"SXcXFXcXZXNXyXv # : r G J ' | | @.3.2.3.<.2.p.z.z.w.A.t.t.Z.A.t.A.D.A.A.D.V.x.M.8.;.;.3.3.5.O.` ` J I Z 8 : , #XyXyXAXSXCXmXCXzX",
"DXzXSXzX).p h y B n A X.W O.@.@.7.p.s.s.d.d.C.f.V.K.>X<X>X<X<X>X<X>X<X<X,XS.f.B.N.N.s.s.s.d.5.#.@.o.X.W V N b v s k 8XmXzXZXCXxX",
"DXdXDXZXW.$   t R P E ` _ +.>.>.s.c.v.x.c.v.f.q.S.>XfXgXgXgXvXjXgXgXhXgXpXIXe.0.z.z.x.c.c.k.7.>.:.O.| ` Q L I 8 o 2 &XGXZXCXAXCX",
"AXmXZXZXx   . M J K T | { +.3.:.d.b.z.x.c.x.f.q.t.<XsXlXfXfXkXpXfXfXgXgXpXK.0.0.z.v.x.x.x.b.7.:.@.} _ ' D K ~ 8   1 &XCXzXCXCXCX",
"mXdXFXHXz o # b J K T  .[ @.3.:.s.m.m.z.x.v.B.S.Z.<XhXlXfXsXkXkXgXjXjXlXwXUXt.t.m.M.v.l.z.b.8.<.1.O._ ' R F ~ >   % &XFXSXHXCXMX",
"AXzXcXFXR.*   b J K W O.O.<.7.8.N.h.j.j.z.g.D.K.K.eX4X3X1X1X3X4X4X1X1X4X1X,XK.UXf.V.g.f.j.m.d.8.8.;.O. .W K ~ ; . 1 &XSXcXzXmXmX",
"dXCXdXdXR.X   m D J o.4.:.a.v.l.V.u.0.A.y.t.:XlXsX.X{.|.'.|.|.'.`.!.].{.`.uXaXdXH.0.e.t.r.u.h.c.c.6.,.#.T K ~ 7   & 8XzXJXxXxXzX",
"DXDXAXCXc o   m K ~ o.4.>.a.v.l.B.u.q.e.y.t.:XlX5XXX|.].{.[.}.'.oX'.|.|.'.3XkXsXH.e.0.0.u.L.m.c.b.6.,.#.Q H ^ >   & 0XHXJXVXCXZX",
"SXDXMXNXx #   r ~ K X.4.3.a.v.c.f.u.q.t.e.A.,XfXlXOX{.[.{.[.}.}.}.}.}.].].uXfXkXJ.e.q.q.e.u.h.x.z.6.:.@.T J / 8   3 *XHXnXzXCXDX",
"SXrX&X$Xv 9 > V R E $.6.7.s.m.m.A.J.F.J.J.J.<X3XiX].U.T.T.U.T.T.U.I.I.T.T.@XiXhX:XJ.J.J.F.J.B.z.j.p.6.2.[ T U r 7 9 /.%X&XmXCXSX",
"VXE.< < t ! ! X.#.4.8.M.n.g.w.w.,XyXwXwXeXeX2XoX!.f < < % % * + $ < < % 2 P.`.`.uXwXwXwXdXyXH.D.B.N.k.n.4.#.#./ ! B 6 < u &XKXDX",
"AXE.    w ~ ~ X.>.3.p.c.z.g.q.A.<XgXlXlXhXfXOX'.!.a X         X     . X $ I. X{.3XlXgXlXhXaXH.t.0.h.x.b.8.:.,.W K P 8   < qXVXxX",
"fXE.    r K J  .:.>.p.x.v.g.y.D.<XkXlXlXhXfXOX]. Xf X   X   . o   X @ @ $ d ].|.1XvXsXsXlXwXF.9.0.h.c.b.6.1.@.Y S G 7   = =XAXxX",
"FXE.    w K L ] ,.<.p.x.v.g.0.D.<XpXfXsXpXaXXX!. Xi - - & & 3 3 2 3 3 - = I. X`.4XiXhXsXlXsXH.0.y.h.c.b.6.:.1.R J Z > + = &XVXSX",
"MXE.    w K K  .:.>.p.x.x.B.e.r.<XsXkX4X{.}.p O * /.pXuX9X9X9XpX9XeX9XpXrXd % 3 T.}.+XpXkXpXF.0.0.m.x.b.2.<.:.E K G ;   & 9XZXCX",
"ZXE.    w K K  .:.>.p.x.c.g.e.e.<XkXfX.X{.{.a O o ^.bXCXZXZXmXVXHXNXbXxXnXh o $ P.}.|.3XkXjXG.e.0.m.x.b.6.>.@.E K G ;   & 9XZXCX",
"ZXE.X   w K K  .:.>.p.x.x.g.e.r.>XkXkX.X'.[.u o o /.CXCXZXZXCXbXVXmXZXSXMXk   o P.|.`.3XfXdXG.y.w.m.x.b.2.<.:.E K G ;   & 9XVXCX",
"mXE.    w ~ K  .:.<.p.x.x.B.e.r.>XkXkX4X'.{.u o o ^.CXSXMXbXzXVXVXmXCXSXnXp     Y.}.'.uXkXaXF.e.0.m.x.b.2.<.@.E K G ;   & 9XZXCX",
"mXE.    w ~ K  .:.>.p.x.x.g.e.r.<XfXkX.X{.[.u O o ^.GXSXZXDXDXGXDXSXCXSXMXs   . P.}.'.pXkXfXF.0.y.m.l.k.2.<.:.E K G ; X & 9XZXCX",
"ZXE.X   w K K  .<.>.p.c.x.g.e.r.>XfXkX.X'.[.u   o ^.GXSXCXZXCXCXVXZXCXGXMXk X   Y.}.'.uXfXdXG.y.y.z.x.b.2.<.:.E K G ;   & 8XCXCX",
"MXE.    w ~ K  .:.>.p.x.x.B.e.r.>XfXlX.X'.[.u o $ (.GXFXDXDXCXCXDXZXCXSXMXp     P.}.`.uXkXfXJ.y.0.z.x.b.2.<.@.E F G ;   & 9XVXCX",
"ZXE.    w K K  .:.:.p.x.x.g.e.r.<XfXfX.X{.|.u o o (.CXjXZXCXCXCXSXmXmXSXMXk   O P.}.'.uXkXpXG.e.y.m.x.b.2.<.:.E F G ;   & 9XZXCX",
"cXW.    0 ~ S ] <.1.7.v.z.f.e.r.,XfXgX2X}.[.i   . ^.CXFXFXCXDXZXCXZXxXcXMXk   . P.}.'.5XgXwXF.9.t.z.x.k.2.:.4.R ~ P >   % 8XBXVX",
"DX_.    q K H o.:.3.a.c.v.f.y.u.<XkXlX2X'.[.i   o ^.ZXxXCXCXCXbXCXZXzXSXMXs   . P.}.'.5XgXaXIXy.r.z.l.b.6.>.,.T P G > + = 8XmXSX",
"mXW.X   w J J o.,.>.7.b.M.f.e.u.<XkXlXXXoX[.i   o ^.MXCXCXCXGXZXCXZXmXSXNXs   O U.}.'.3XlXpXIX0.r.z.x.n.6.:.#.E K I 7   = 8XMXFX",
"mXW.$ . w P L %.>.3.a.c.v.f.0.e.<XsXlX4X}. Xf O * ^.mXZXCXCXCXzXxXDXCXZXNXl O O P.'.+XhXgXwXG.y.u.j.x.n.6.>.#.Y K I 9 O & 8XNXdX",
"ZX(.p p y m B V ) ) -.-.-.=.=.=.;X^.).R.I.I.s p p &XmXMXAXCXSXAXzXAXmXSXnXE.p a Y.I.Y.Q.#X#X*.=.=.-.-.-.) ) ) V B M g a s 9XNXGX",
"xXCXbXaXc # # X . # # - - X X - + % % X o 3 _.rXqXMXDXmXmXCXxXZXSXGXbXDXLXtXyXtXs % + X = % @ @ X   # . . X # O # ; -XNXKXGXVXDX",
"VXJXGXCXz X . o X o o     O +     . .     o /.FXZXSXxXCXJXAXSXCXSXZXZXzXCXbXMXZXs         $ o O o       X   X + . + 2XPXVXjXVXSX",
"MXmXCXZXc   O O   . O   .         . . O $ $ ^.kXFXxXcXDXZXCXCXZXCXMXZXSXxXCXFXxXa   @ .     X     X     X     . @ O 0XZXJXSXBXdX",
"cXSXZXyXW.2 < & + + + + + + + + % & O & o 2 /.BXCXCXCXDXCXCXCXCXCXCXVXCXCXCXCXCX6 = = % + = % * + + + + + + + + * u &XMXVXGXZXbX",
"xXxXZXJXqX$X&X$X6X7X6X6X7X7X6X7X&X&X$X$X$X%XaXGXVXCXCXCXCXDXCXVXDXZXCXCXCXCXCXDXqX&X&X=X&X&X&X&X7X7X7X7X7X7X7X7X$X%XMXGXjXGXZXAX",
"SXSXjXDXCXHXLXAXSXSXSXcXxXSXFXcXSXGXmXCXSXxXFXvXCXCXCXCXCXCXCXCXCXCXCXCXCXCXCXVXxXjXSXGXFXSXSXSXcXFXcXCXFXcXSXxXJXCXSXxXjXSXDXCX",
"ZXCXCXCXjXxXcXjXZXCXCXZXZXZXCXZXxXSXxXxXSXFXFXxXCXCXCXCXVXCXCXCXCXCXDXCXCXCXCXCXDXDXGXDXCXCXSXGXCXCXCXCXHXCXCXCXxXSXCXSXSXCXDXCX",
"mXmXZXDXCXzXFXSXCXCXCXCXCXCXSXDXVXZXCXZXCXbXnXnXCXDXCXCXCXCXCXCXCXCXCXCXCXCXDXVXmXMXMXMXbXMXZXMXZXDXZXDXDXZXDXZXmXDXAXDXAXZXZXCX",
"ZXMXmXMXmXZXZXZXSXSXCXxXSXCXCXCXCXCXCXDXDXMXZXJXCXCXCXVXCXCXVXCXCXCXCXDXCXCXCXCXCXCXDXCXCXCXCXCXCXSXDXSXCXCXCXSXZXZXMXmXMXVXZXCX",
"ZXZXZXmXZXCXCXZXCXCXCXZXCXCXCXCXSXSXDXCXCXZXCXSXCXCXCXCXCXDXDXZXVXCXCXCXCXCXCXCXxXcXxXFXFXSXFXcXzXCXzXzXCXzXzXCXDXDXCXCXCXCXCXZX",
"zXCXCXCXCXDXzXzXZXZXZXCXZXZXCXCXCXCXCXZXCXCXVXDXCXCXCXCXCXCXCXCXCXCXVXCXCXCXCXCXAXCXmXMXmXzXmXAXZXZXZXZXDXZXZXZXSXjXSXSXxXxXDXDX"
};
