/* XPM */
static char *floor1685651227[] = {
/* columns rows colors chars-per-pixel */
"64 64 8 1 ",
"  c #63B2F4",
". c #64B3F5",
"X c #63B4F5",
"o c #65B4F6",
"O c #64B5F6",
"+ c #66B5F7",
"@ c #65B6F7",
"# c #67B6F8",
/* pixels */
"OOOOOOOOOOOOOOOOOOOOOOOOOOOOOOOOOOOOOOOOOOOOOOOOOOOOOOOOOOOOOOOO",
"OOOOOOOOOOOOOOOOOOOOOOOOOOOOOOOOOOOOOOOOOOOOOOOOOOOOOOOOOOOOOOOO",
"OOOOOOOOOOOOOOOOOOOOOOOOOOOOOOOOOOOOOOOOOOOOOOOOOOOOOOOOOOOOOOOO",
"OOOOOOOOOOOOOOOOOOOOOOOOOOOOOOOOOOOOOOOOOOOOOOOOOOOOOOOOOOOOOOOO",
"OOOOOOOOOOOOOOOOOOOOOOOOOOOOOOOOOOOOOOOOOOOOOOOOOOOOOOOOOOOOOOOO",
"OOOOOOOOOOOOOOOOOOOOOOOOOOOOOOOOOOOOOOOOOOOOOOOOOOOOOOOOOOOOOOOO",
"OOOOOOOOOOOOOOOOOOOOOOOOOOOOOOOOOOOOOOOOOOOOOOOOOOOOOOOOOOOOOOOO",
"OOOOOOOOOOOOOOOOOOOOOOOOOOOOOOOOOOOOOOOOOOOOOOOOOOOOOOOOOOOOOOOO",
"OOOOOOOOOOOOOOOOOOOOOOOOOOOOOOOOOOOOOOOOOOOOOOOOOOOOOOOOOOOOOOOO",
"OOOOOOOOOOOOOOOOOOOOOOOOOOOOOOOOOOOOOOOOOOOOOOOOOOOOOOOOOOOOOOOO",
"OOOOOOOOOOOOOOOOOOOOOOOOOOOOOOOOOOOOOOOOOOOOOOOOOOOOOOOOOOOOOOOO",
"OOOOOOOOOOOOOOOOOOOOOOOOOOOOOOOOOOOOOOOOOOOOOOOOOOOOOOOOOOOOOOOO",
"OOOOOOOOOOOOOOOOOOOOOOOOOOOOOOOOOOOOOOOOOOOOOOOOOOOOOOOOOOOOOOOO",
"OOOOOOOOOOOOOOOOOOOOOOOOOOOOOOOOOOOOOOOOOOOOOOOOOOOOOOOOOOOOOOOO",
"OOOOOOOOOOOOOOOOOOOOOOOOOOOOOOOOOOOOOOOOOOOOOOOOOOOOOOOOOOOOOOOO",
"OOOOOOOOOOOOOOOOOOOOOOOOOOOOOOOOOOOOOOOOOOOOOOOOOOOOOOOOOOOOOOOO",
"OOOOOOOOOOOOOOOOOOOOOOOOOOOOOOOOOOOOOOOOOOOOOOOOOOOOOOOOOOOOOOOO",
"OOOOOOOOOOOOOOOOOOOOOOOOOOOOOOOOOOOOOOOOOOOOOOOOOOOOOOOOOOOOOOOO",
"OOOOOOOOOOOOOOOOOOOOOOOOOOOOOOOOOOOOOOOOOOOOOOOOOOOOOOOOOOOOOOOO",
"OOOOOOOOOOOOOOOOOOOOOOOOOOOOOOOOOOOOOOOOOOOOOOOOOOOOOOOOOOOOOOOO",
"OOOOOOOOOOOOOOOOOOOOOOOOOOOOOOOOOOOOOOOOOOOOOOOOOOOOOOOOOOOOOOOO",
"OOOOOOOOOOOOOOOOOOOOOOOOOOOOOOOOOOOOOOOOOOOOOOOOOOOOOOOOOOOOOOOO",
"OOOOOOOOOOOOOOOOOOOOOOOOOOOOOOOOOOOOOOOOOOOOOOOOOOOOOOOOOOOOOOOO",
"OOOOOOOOOOOOOOOOOOOOOOOOOOOOOOOOOOOOOOOOOOOOOOOOOOOOOOOOOOOOOOOO",
"XXXXXXXXXXXXXXXXXXXXXOOOXXXXXXXXXXXXXOOOXXXXXOOOXXXXXXXX@@@@@@@@",
"XXXXXXXXXXXXXXXXXXXXOOOOXXXXXXXXXXXXOOOOXXXXOOOOXXXXXXXXOOOOOOOO",
"OOOOOOOOOOOOOOOOXXXXOOOOOOOOOOOOXXXXOOOOXXXXOOOOOOOOOOOOXXXXXXXX",
"OOOOOOOOOOOOOOOOXXXOOOO@OOOOOOOOXXXOOOO@XXXOOOO@OOOOOOOOXXXXXXXX",
"OOOOOOOOOOOOOOOOXOOOO@@@OOOOOOOOXOOOO@@@XOOOO@@@OOOOOOOO@@@@@@@@",
"OOOXOOOOOOOOOOOOOOOO@@@@OOOOOOOOOOOO@@@@OOOO@@@@OOOOOOOO@@@@@@@@",
"O#O@@@@@@@@@@@@@OOOO@@@@@@@@@@@@OOOO@@@@OOOO@@@@@@@@@@@@OOOOOOOO",
"#O@@@@@@@@@@@@@@OOO@@@@@@@@@@@@@OOO@@@@@OOO@@@@@@@@@@@@@XXXXXXXX",
"ooooooooooooooooooooooooooooooooOOoooooooooooooooooooooooooooooo",
"ooooooooooooooooooooooooooooooooOOoooooooooooooooooooooooooooooo",
"ooooooooooooooooooooooooooooooooOooooooooooooooooooooooooooooooo",
"oooooooooooooooo o o o o o o o ooooo o o o oo o oooooooooooooooo",
"ooooooooooooooooo o o o o o o o o o o o o o o o oooooooooooooooo",
"oooooooooooooooo o o o o o o o o o o o o o o o ooooooooooooooooo",
"ooooooooooooooooo o o o o o o o o o o o o o o o oooooooooooooooo",
"oooooooooooooooo o o o o o o o o o o o o o o o ooooooooooooooooo",
"ooooooooooooooooo o o o ooooooooooooooooooooooooo o o oooooooooo",
"oooooooooooooooo o o o o oo  o oo  o oo o  o oo  o o o ooooooooo",
"oooooooooooooooooooooooo                        oooooooooooooooo",
"oooooooooooooooooooooooo oooo o  o o ooo o o ooooooooooooooooooo",
"oooooooooooooooooooooooo++++++++oo++++++oo++++++oooooooooooooooo",
"oooooooooooooooooooooooo########################oooooooooooooooo",
"oooooooooooooooo++++++oo++++++++++++++++++++++++++oo+++ooooooooo",
"oooooooooooooooo+++++++++++++++++++++++++++++++++++++++ooooooooo",
"oooooooooooooooooooooooooooooooooooooooooooooooooooooooooooooooo",
"oooooooooooooooooooooooooooooooooooooooooooooooooooooooooooooooo",
"oooooooooooooooooooooooooooooooooooooooooooooooooooooooooooooooo",
"oooooooooooooooooooooooooooooooooooooooooooooooooooooooooooooooo",
"oooooooooooooooooooooooooooooooooooooooooooooooooooooooooooooooo",
"oooooooooooooooooooooooooooooooooooooooooooooooooooooooooooooooo",
"oooooooooooooooooooooooooooooooooooooooooooooooooooooooooooooooo",
"oooooooooooooooooooooooooooooooooooooooooooooooooooooooooooooooo",
"oooooooooooooooooooooooooooooooooooooooooooooooooooooooooooooooo",
"oooooooooooooooooooooooooooooooooooooooooooooooooooooooooooooooo",
"oooooooooooooooooooooooooooooooooooooooooooooooooooooooooooooooo",
"oooooooooooooooooooooooooooooooooooooooooooooooooooooooooooooooo",
"oooooooooooooooooooooooooooooooooooooooooooooooooooooooooooooooo",
"oooooooooooooooooooooooooooooooooooooooooooooooooooooooooooooooo",
"oooooooooooooooooooooooooooooooooooooooooooooooooooooooooooooooo",
"oooooooooooooooooooooooooooooooooooooooooooooooooooooooooooooooo"
};
