/* XPM */
static char *collectable1685651227[] = {
/* columns rows colors chars-per-pixel */
"64 64 236 2 ",
"   c #010302",
".  c #0B0201",
"X  c #010A02",
"o  c #02040A",
"O  c #0A020B",
"+  c #020B0D",
"@  c #0A0B0C",
"#  c #130201",
"$  c #1D0202",
"%  c #170709",
"&  c #000513",
"*  c #000A13",
"=  c #090819",
"-  c #130717",
";  c #02131E",
":  c #09151A",
">  c #131613",
",  c #240200",
"<  c #2B0100",
"1  c #250807",
"2  c #340200",
"3  c #3B0404",
"4  c #251A1E",
"5  c #2D2018",
"6  c #000F24",
"7  c #001629",
"8  c #011A2C",
"9  c #071625",
"0  c #191C2A",
"q  c #051D38",
"w  c #171B37",
"e  c #381C32",
"r  c #0B2427",
"t  c #19282A",
"y  c #02243B",
"u  c #0C2737",
"i  c #142935",
"p  c #1C3031",
"a  c #352738",
"s  c #2D2932",
"d  c #430202",
"f  c #450404",
"g  c #5D0100",
"h  c #550300",
"j  c #630300",
"k  c #6B0300",
"l  c #690A06",
"z  c #740100",
"x  c #7C0304",
"c  c #78030C",
"v  c #7E0917",
"b  c #551C25",
"n  c #691522",
"m  c #6B232F",
"M  c #062846",
"N  c #1D2547",
"B  c #093759",
"V  c #17384E",
"C  c #293C66",
"Z  c #323558",
"A  c #5E2D43",
"S  c #583A4C",
"D  c #214A5B",
"F  c #2F4344",
"G  c #1B4C6E",
"H  c #295768",
"J  c #285778",
"K  c #36537B",
"L  c #365679",
"P  c #2C4C69",
"I  c #31667A",
"U  c #494C63",
"Y  c #44546E",
"T  c #42667F",
"R  c #44616F",
"E  c #830202",
"W  c #8C0203",
"Q  c #880209",
"!  c #960001",
"~  c #9C0201",
"^  c #960009",
"/  c #830613",
"(  c #921012",
")  c #A60000",
"_  c #A90101",
"`  c #AB020C",
"'  c #A10A0F",
"]  c #B40101",
"[  c #BD0402",
"{  c #B80C0A",
"}  c #B40617",
"|  c #A70E13",
" . c #C40200",
".. c #CC0102",
"X. c #C3010D",
"o. c #CF0008",
"O. c #C40807",
"+. c #D30002",
"@. c #DA0304",
"#. c #DA030D",
"$. c #D60B0A",
"%. c #DC0412",
"&. c #D20516",
"*. c #C90A19",
"=. c #E40103",
"-. c #EC0202",
";. c #ED020C",
":. c #EA090C",
">. c #F50201",
",. c #FD0101",
"<. c #F40901",
"1. c #FC0A02",
"2. c #F4020A",
"3. c #FD020A",
"4. c #F40B0C",
"5. c #FA1307",
"6. c #E90614",
"7. c #F30411",
"8. c #FC0211",
"9. c #F90A15",
"0. c #F41113",
"q. c #EC1628",
"w. c #D42922",
"e. c #E62424",
"r. c #FF2B2D",
"t. c #FF333D",
"y. c #FF3D37",
"u. c #F12839",
"i. c #FC413C",
"p. c #FD3544",
"a. c #FB3A42",
"s. c #FB454B",
"d. c #FE514F",
"f. c #FE5A55",
"g. c #FC5A5A",
"h. c #F74551",
"j. c #FD615C",
"k. c #F9655B",
"l. c #FF6264",
"z. c #2C5A83",
"x. c #375882",
"c. c #2C6787",
"v. c #3D6C8E",
"b. c #3B6485",
"n. c #3C7689",
"m. c #396D93",
"M. c #386A94",
"N. c #3A7592",
"B. c #2E6896",
"V. c #327DA3",
"C. c #456988",
"Z. c #447498",
"A. c #486D93",
"S. c #497AA5",
"D. c #537DA5",
"F. c #3E88A9",
"G. c #4E8DBD",
"H. c #4399BE",
"J. c #5392BC",
"K. c #5D95B8",
"L. c #4D92B7",
"P. c #6293BA",
"I. c #608DB7",
"U. c #538EC5",
"Y. c #4B97C8",
"T. c #5A95C4",
"R. c #5899CC",
"E. c #599CD4",
"W. c #4B9ADC",
"Q. c #669DC8",
"!. c #689CD5",
"~. c #56A8C9",
"^. c #5AAADE",
"/. c #59B1D9",
"(. c #6DA2CC",
"). c #65A4D4",
"_. c #69A8D9",
"`. c #6BADD9",
"'. c #5CABEC",
"]. c #57ABEA",
"[. c #5DB3ED",
"{. c #5AB9E8",
"}. c #5DADF2",
"|. c #57AEF6",
" X c #4EBAFF",
".X c #5DB4F3",
"XX c #5EBAF4",
"oX c #5DB5FC",
"OX c #5EBAFB",
"+X c #55B6F9",
"@X c #64ABE4",
"#X c #65AEEC",
"$X c #69AEED",
"%X c #67AAE4",
"&X c #71ACE9",
"*X c #6BB1E4",
"=X c #64B3EE",
"-X c #6BB4ED",
";X c #62BBEB",
":X c #6CB9ED",
">X c #63B5E4",
",X c #76B6E9",
"<X c #62AFF3",
"1X c #62AFFE",
"2X c #6BAEF8",
"3X c #72ACF2",
"4X c #65B4F6",
"5X c #69B4F3",
"6X c #64B9F5",
"7X c #69B9F5",
"8X c #64B5FA",
"9X c #6BB5FC",
"0X c #64B9FC",
"qX c #6ABAFB",
"wX c #75B2FD",
"eX c #72B8F5",
"rX c #5CC2FE",
"tX c #FF8E8A",
"yX c #FFAE99",
"uX c #FFADAB",
"iX c #FFABA5",
"pX c #FFBFB8",
"aX c #FFB3AA",
"sX c #FDC5B8",
"dX c #80AFF5",
"fX c #FDC5C7",
"gX c #FFCBD2",
"hX c #FFEADB",
"jX c #FFECE3",
"kX c #FFEDEA",
"lX c #FEF7E9",
"zX c #FDFDF3",
"xX c #F3FFFF",
"cX c #FCFDFE",
"vX c #FBFAF7",
"bX c #EEFFFF",
/* pixels */
"4X4X4X4X4XXX8X4X8X4X=X5X4X2X#X=X4X-X=X4X-X=X4X-XoXOX7X4X<X8X0X+X8X8X=X[.XX6XoXoX4X-X=X5X-X4X4X-X#X5X5X5X5X4XqX-X4X4X4X4X6X4X4X4X",
"4X4X8X6X4X4X4X4X4X4X.X.X8X0X8X0X8X6X4X7X4X4X8X6X0X8X6X6X4X8X0X0X8X8X4X6X0X0X8XqX8X6X4X4X4X6X4X6X6X8X4X4XOX8X5X#X4X4X4X4X8X4X8XXX",
"4X4X4X4X4X6X4X6X4X8X.XoX8X0XoX+XoXoXoXoXoXoXoXoX4X4X[.4X7X5X4X[.8X8X4X4XXX].4X-XoXoXoXoXoXoXoXoXoXoX8X0X0XoX4X4X4X8X4X4X4X6X4X4X",
"4X6X4X4X4X8X4X4X5X4X.X4X@XeX-X5X6X4X4X4X6X4X6X4X*X7X4XOX4X-X=X4XoX4X4X4X8X4XeX_.6X4X4X4X4X6X6X4X4X-X-X@X4XoX].4X4XXX4X4X4X4X4X4X",
"4X6X6X4X4X4X4X4X=XqX<X_.m.C.I C.m.v.v.v.v.v.v.v.m.R.8XOX<X-X-X5X.X7X5X<XoX8X*Xm.m.v.v.v.v.v.v.v.M.C.C.v.U.qXoX8XXX4X6X4X4X8X4X4X",
"4X8X4X4X8X4X4X4X=XqX<XG.q X o &       o   o   o 6 M.4XoX.X-X4X8X6X4X#X}.oX4XT.y       o o o     + o o * z.=XXX4X8X4X4X4X4X6X4X4X",
"4XXX8X4X4X4X4X4X[.8X4XT.;   .     . .     .   . o C.5X8XXX=X4XoXOX5X5XoX0X7XQ.7   . .     . .     .     J :X4X8X4X4X4X8X4X4XXX8X",
"4X4X4X4X6X4XXX8X6XoXoXU.;   .   o o   o o   o o   C.5XoXXX5X4XoXXX[.5X8XoX=X(.8 o o   o o   o X   . . o I 5X.X8X4X4X4X4X6X4X4X4X",
"|.wX9X{.8X8XqX~.`.].*XS.0 . . o % % # $ # . # $ % I ).`./.%XrX X2XoX#X)._.4XL.4 . . # . . . # . O $ , % R ~.@X_.`.0X1XOX{.7X0X8X",
"6X9X8X{.qX9X<Xc.r u V e ` +. .O.+.+...+. .O.[ [ } m a w u C !.dX$X-Xb.u N N s | +.o.o.o.o.o.o.o.X.+...) n p M M V E.wXqX{.#X4X4X",
"{.5X4X[.#XoX-XG       2 3.1.,.1.>.,.,.,.1.3.,.,.,.z .   X u ~.:X;X{.J X o   < -.,.,.,.,.,.,.>.,.1.,.1.>.Q . o O 9 R.9X9X7X4X8X;X",
":XqXqX-X<XoXeXP o O . < 6.,.-.>.<.1.>.>.,.3.,.3.3.j   o o w ^.2XqX6XJ o o + < ;.,.1.,.1.,.1.,.,.3.,.,.3.Q . X O 9 ~.+X].;X4XXX6X",
"XXoX.X%XeXOX*XZ     X 2 6.>.3.3.,.,.,.-.1.>.1.1.3.j     . w ^.2X4X.XK . . X , %.3.,.3.3.3.3.3.3.,.,.,.;.E   X o > ~.rX5X-X2XOX=X",
"0X8X'.S.Z.V.A.A g g j / g.g.g.f.f.g.j.k.d.,.,.1.3.~ h j j b n.F.S.N.S l g h z -.,.,.,.,.,.>.,.,.>.1.>.>.] j h j n C.V.S.A.T.4X5X",
"8X}.G.7 o * @ v 2.2.6.p.hXlXzXzXcXcXvXlXpXu.7.-.1.2.;.3.>.` % & O   Q >.-.;.3.,.,.,.,.,.,.,.,.,.1.,.,.,.,.2.3.,.} 1 & & & z.'.qX",
"<X=XK.o . X , ) 1.,.>.t.lXcXcXcXxXxXbXxXfXq.,.,.,.3.3.,.1.$., .   X W ,.1.3.3.>.3.,.,.,.,.,.,.,.3.3.3.,.,.1.,.,.-.3 . # . I {.0X",
"4X4XG.+ X   X ) 3.,.>.p.kXxXcXcXcXcXxXbXgXq.,.,.3.>.,.,.1.{ 2 X X   x 6.,.,.1.>.,.,.,.,.,.,.,.,.,.,.,.,.,.,.,.,.=.,       K [.4X",
"4X4XU.+       ) ,.,.>.t.jXcXcXzXcXjXjXlXsXe.<.=.2.,.1.,.,. .j , , 2 ! ;.,.,.,.,.,.,.,.,.,.,.,.,.,.,.,.,.,.,.,.,.=.,       K .X5X",
"4X8XG.+     X ) 1.,.,.t.hXbXcXzXtXh.a.h.i.,.1.,.3.>.1.,.1.3.[ ' _ ] #.3.,.,.,.>.,.,.,.,.,.,.,.,.,.,.,.,.,.,.,.,.=.,   .   K XX5X",
"4X4XG.+       ) ,.,.,.t.jXxXcXcXl.2.3.,.>.,.1.,.,.,.,.,.,.,.2.6.3.3.,.,.,.,.1.>.,.,.,.,.,.,.,.,.,.,.,.,.,.,.,.,.=., o     K .X4X",
"6X4XG.+     X ) ,.1.>.p.kXxXcXcXk.=.,.,.1.>.1.>.,.,.1.>.,.,.,.,.1.,.,.>.,.,.,.,.,.,.,.,.,.,.,.,.,.,.,.,.,.,.,.,.=.,   . X K [.4X",
"XX4XU.+       ) 3.,.>.a.hXcXcXzXj.9.,.,.,.3.3.8.,.,.,.3.,.1.,.1.,.1.,.>.,.,.,.,.,.,.,.,.,.,.,.,.,.,.,.,.,.,.,.,.=., o     K .X5X",
"4X4XG.+     X ) ,.,.>.r.yXuXaXyXi.4.,.,.3.,.,.2.,.3.,.,.>.>.,.,.,.,.,.>.>.,.>.1.,.,.,.,.,.,.,.,.,.,.,.,.,.,.,.,.=.,       K XX5X",
"4X4XJ.+       ) 8.1.,.,.q.6.8.,.4.,.1.,.1.,.,.,.,.,.,.,.,.,.,.,.7.3.,.3.,.,.>.,.,.,.,.,.,.,.,.,.,.,.,.,.,.,.,.,.=.,     X K [.4X",
"8X0XU.& o     ) <.,.>.,.1.,.,.,.1.,.,.>.,.,.,.>.,.,.,.,.,.,.,.,.,.,.,.,.,.,.,.,.,.,.,.,.,.,.,.,.,.,.,.,.,.,.,.,.=.1 o     K XX5X",
"}.oXG.@ X X   ) ,.,.,.,.,.>.1.1.,.>.,.>.3.,.,.,.,.,.,.,.,.,.,.,.,.,.,.,.,.,.,.,.,.,.,.,.,.,.,.,.,.,.,.,.,.>.,.>.@., o     K XX4X",
"8X6XG.o X o . ) 3.>.>.,.0.2.3.2.0.>.3.>.,.,.3.,.,.,.,.,.,.,.,.,.,.,.,.,.,.,.,.,.,.,.,.,.,.,.,.,.,.,.,.>.>.1.>.>.-.< o .   K 6X8X",
"6X6XL.O     . _ >.1.1.r.tXiXuXiXy.>.1.>.,.,.1.,.,.,.,.,.,.,.,.,.,.,.,.,.,.,.,.,.,.,.,.,.,.,.,.,.>.,.>.,.>.,.,.,.-.<   .   K XX=X",
"[.[.J.@ X   . _ >.,.,.a.hXbXcXcXf.4.,.,.,.>.,.,.,.,.,.,.,.,.,.,.,.,.,.,.,.,.,.,.,.,.,.,.,.,.,.,.,.,.,.,.,.,.,.3.-.< o     L XX4X",
"7X6XU.@   o X ) ,.1.,.p.kXbXcXcXj.:.,.1.,.,.>.,.,.,.,.,.,.,.,.,.,.,.,.,.,.,.,.,.,.,.,.,.,.,.,.,.,.,.,.,.,.,.,.,.=.,       L 6XqX",
"7X.XU.@ + + + ^ ,.>.>.a.jXxXcXcXf.;.,.3.,.,.>.,.,.,.,.,.,.,.,.,.,.,.,.,.,.,.,.,.,.,.,.,.,.,.,.,.,.,.,.,.>.>.-.<.+.1 + X o x.XX9X",
"9X8XE.p p i r ( @.[  .w.sXfXfXsXd.4.3.,.,.1.>.>.,.,.,.,.,.,.,.,.,.,.,.,.,.,.,.,.,.,.,.,.,.,.,.,.,.,.,.-.=.@.+...o.5 i t t A.oX0X",
"6X4X$X'.|.'.).C 1 . . f 0.1.9.0.3.,.>.,.,.,.,.,.,.,.,.,.,.,.,.,.,.,.,.,.,.,.,.,.,.,.,.,.,.,.,.,.>.3.,.3.W . O # 9 P.].oX4X4X=X=X",
"oX4X5X2X8X5X*XD   X   < #.,.,.4.1.,.>.,.,.,.,.,.,.,.,.,.,.,.,.,.,.,.,.,.,.,.,.,.,.,.,.,.,.,.,.,.3.1.,.>.x   X   9 (.4XoX}.4X4X5X",
"6X4XeX5XoX9X*XG .   . d -.1.,.>.3.1.,.,.,.,.,.,.,.,.,.,.,.,.,.,.,.,.,.,.,.,.,.,.,.,.,.,.,.,.,.,.,.,.,.,.W . X . 6 T.0XqX4X4X4X5X",
"6X4X5X<XoX8X_.J     O 3 ..1.3.2.=.,.,.,.,.,.,.,.,.,.,.,.,.,.,.,.,.,.,.,.,.,.,.,.,.,.,.,.,.,.,.>.3.1.<.=.Q % o   M R.8X8X5X4X}.4X",
"8X=X5X5X8X9X5XG.m.N.Z.R l k j k ..2.,.,.1.,.,.,.,.,.,.,.,.,.,.,.,.,.,.,.,.,.,.,.,.,.,.,.,.,.>.>.k g g k S n.m.C.Z.'.8X5X=X4X6X8X",
"4X4X#X<X0X9X5X#X.X.X0XF.-     o [ 2.,.,.1.,.,.3.,.,.,.,.,.,.,.,.,.,.,.,.,.,.,.,.,.,.,.,.,.1.>.-.%     O x.{.OX6X%X4X8X5X#X4X0X8X",
"7X=X5X5X4X.X.X4X8X2XqXY.=   o o _ ;.,.,.1.,.,.>.,.,.,.,.,.,.,.,.,.,.,.,.,.,.,.,.>.,.,.,.,.,.>.=.%   o o x.0X8X2X5X4X4X-X-X8XOX4X",
"7X'.5X9X1X.X4XOXqX-X5XT.O     . ) 9.,.,.<.,.3.,.,.,.,.,.,.,.,.,.,.,.,.,.,.,.,.,.1.,.,.,.,.,.>.-.< . X . L =X}.-X4XoX8X-X5X4X|.8X",
"4X4X4X4X4X4X4X4X4X-X*XJ.B y u u } } O.&.o.,.,.,.2.>.>.,.,.,.3.,.,.>.2.1.,.,.3.,.1.,.,.@.O.&.#.X.i u y M M._.-X-X4X4X4X5X4X4X4X4X",
"4X4X4X4X4X4X4X4X8X8X4X5X).!._.(.F $ # < h @.>.2.,.,.3.3.,.,.,.,.,.,.>.,.,.,.,.,.2.3.2.W < $ # > Q.(.).E.@XqX4X8X4X4X4X4X4X4X4X4X",
"4X4X4X4X4X4X9X4X8X8XoX8X4X0X4X<XH o     2 $.>.3.,.3.,.,.,.,.,.,.,.,.,.,.,.,.,.3.3.,.3.x .   o r W.<XqX4X8X8XoXoX4X8X4X4X4X4X4X4X",
"4X4X4X4X4X4X4X4X.X4X4X4X8XXX.XXXD   X   1 @.,.,.,.,.,.,.3.,.,.,.1.3.,.3.1.,.1.1.1.,.1.z .     > ].9X8X4X4X4X4X5X4X5X4X4X4X4X9X4X",
"4X4X9X4X4X4X4X4X5X=X=X=X=X=X6X=XD O o   3 #.,.,.#.3.1.,.3.3.,.,.,.,.3.,.<.,.3.$.,.,.2.c O o   0 E.5X-X5X7X=X5X5X9X4X4X4X4X4X4X4X",
"4X4X2X4X4X4X9X4X9X4X8X4X5X5X7X5XG.C.L b.R v Q x x  .,.,.,.,.,.,.>.,.3.,.1.,.=.E z E v S c.c.c.v.'.<X4X5X4X8X8XOX4X4X4X4X4X4X4X4X",
"4X4X4X4X4X4X4X4X4X<X9X4X4X4X4X4XoX$X:X0XY.=   X $ ! ,.,.>.>.,.>.,.3.,.,.>.,.o.2 X   O c.rX5XeX=XqX4X8X4X8X0X8X8X4X4X4X4X4X4X4X4X",
"4X4X4X4X4X4X4X4X4X=X6X[.7X.X8XOX+XqX].9X~.- . . X / 3.,.>.>.3.3.,.1.,.3.,.3.*.# X   O v.;X$X3X4X4X4X8X8X4X9X<X5X4X4X4X4X4X4X4X9X",
"4X4X4X4X4X4X4X4X4X4X4X4X4X4X9X4X8X4X4X3XI.7   #   ! 1.1.,.=.,.<.<.>.>.,.,.1.+.< # . * x.,X5X<X4X4X4X4X4X4X4X4X4X4X4X4X4X4X4X4X4X",
"4X4X4X4X4X4X4X4X4X4X4X4X4X4X4X4X0X0X8X=XR.B 8 ; w / +.=.6.6.3.,.1.,.>.6.$.@.` e 9 8 M B.%X5X5XqX4X4X4X4X4X4X4X4X9X4X4X4X4X4X4X4X",
"4X4X4X4X4X4X4X4X4X4X4X4X4X4X4X4X.X4X.X.X7XE.E.(.Y.U 2 < $ f 6.-.4.=.E 3 < 2 s F.Q.).E.}.0X0X4X'.4X4X4X4X4X4X4X4X4X4X4X4X4X4X4X4X",
"4X4X4X4X4X4X4X4X9X4X4X4X4X2X4X4X9X9X8X].6XXX4X4XwXK o   X , 6.,.3.9.k .     w *X4X8X0XoXoX0X9X9X5X4X8X4X4X9X4X4X4X2X4X4X4X4X4X4X",
"4X4X4X4X4X4X4X4X4X4X4X4X4X4X4X4X2X4X5X.X7X6X5X4XOXG o +   2 :.>.>.,.k   X X 8 ).4X4X6XOX.X4X4X4X4X8X4X4X4X4X4X4X4X4X4X4X4X9X4X4X",
"4X4X4X4X4X4X4X4X4X4X4X4X4X4X4X4X5X5X5X*X=X=X*X=X>XH o o   d @.1.1.,.z . o X r Q.4X=X5X5X9X5X5X5X4X4X4X4X4X4X4X4X4X4X4X4X4X4X4X4X",
"4X4X4X4X4X4X4X4X4X4X4X9X4X4X4X4X.X4X4X4X4X5X5X4X=XI.H J x.U / ! E W A L H P b.[.4X4X=X5X5X4X4X2X4X4X5X4X4X4X4X4X2X4X9X4X4X4X4X4X",
"4X9X4X4X9X2X4X4X4X4X4X4X4X4X4X4X4X8X<X8X8XXX0X.X0X3X*X[.9XY.w   o - b.qX8X*X3X XXX8X<X.X4X8X8X4X4X4X4X4X9X4X4X4X4X4X4X4X4X4X4X4X",
"4X4X4X4X4X4X4X4X4X4X4X4X4X4X4X4X4X4X4X4X4X4X4X4X8X4X7X[.$XQ.; . .   b.,X6XoX4X5X4X4X9X4X4X4X4X4X4X4X4X4X4X4X4X4X4X4X4X4X4X4X4X4X",
"4X4X4X4X4X4X4X4X4X9X4X4X4X2X4X4X4X4X4X4X4X9X4X4X8X4X7X=X5XT.7     * b.*X6XoX4X=X4X4X4X4X4X4X4X9X4X4X4X4X4X4X4X4X4X4X4X4X9X4X4X4X",
"4X4X4X4X4X4X4X4X4X4X4X4X4X4X4X4X4X4X4X4X4X4X4X4X8X4X5X4X4XR.B ; 7 y M.>X6X0X0X5X4X4X4X4X4X4X4X4X4X4X4X4X4X4X4X4X4X4X4X4X4X4X4X4X",
"9X4X4X9X4X4X4X4X4X4X4X4X4X4X4X4X4X4X4X4X4X4X4X4X4X5X5X0X8X4XT.P.P.J.%XqX0X4X4X#X4X4X4X4X4X4X4X4X4X4X4X4X2X9X4X4X4X4X4X4X4X4X4X4X",
"4X2X4X4X4X4X4X4X4X4X4X4X4X4X4X4X4X4X4X8X4X5X4X4X4X5X#X4X|..X-X,X-X$X5X4X.X4X4X7X4X4X4X4X4X4X4X4X4X4X4X4X4X4X4X9X4X4X4X4X9X4X4X4X",
"4X4X4X4X4X4X4X4X4X4X4X4X4X9X4X4X4X4X4X4X4X4X4X4X8X9XeXqX8XXX4X#X4X8X4X4X4X8X4X4X4X4X4X4X4X4X4X4X4X4X4X4X4X4X4X4X4X4X4X4X4X4X4X4X",
"4X4X4X4X4X4X4X2X4X4X4X4X4X4X4X4X2X4X4X4X4X4X4X4XoX4X3X5X4X8XqX4X0X8X4X4X=X4X7X6X4X4X4X4X4X9X4X4X9X4X4X4X4X4X4X4X4X4X4X4X4X4X4X4X",
"4X4X4X4X4X4X4X9X4X4X9X4X4X4X4X4X9X4X4X4X4X4X4X4XoX9X5X3X5X.X8X1X8X9X5X5X=X4X6X.X4X2X4X4X4X4X4X4X4X4X4X4X4X4X4X4X4X4X2X9X4X4X4X4X"
};
