/* XPM */
static char *_25d9b96a1614f3890a1ba73f42328b93v2mcOnQ5p4MiBh2[] = {
/* columns rows colors chars-per-pixel */
"64 64 256 2 ",
"   c #030302",
".  c #0A0101",
"X  c #040B0E",
"o  c #040606",
"O  c #150305",
"+  c #030817",
"@  c #03141A",
"#  c #0F0E0C",
"$  c #330A0D",
"%  c #332917",
"&  c #070924",
"*  c #051527",
"=  c #121731",
"-  c #2D182F",
";  c #122A34",
":  c #282638",
">  c #303133",
",  c #142400",
"<  c #4B0607",
"1  c #771316",
"2  c #730F12",
"3  c #6D2B15",
"4  c #511A32",
"5  c #4C2D32",
"6  c #732B2B",
"7  c #5D2525",
"8  c #1A4D35",
"9  c #2E4A31",
"0  c #316F33",
"q  c #225F16",
"w  c #4F5130",
"e  c #6B542E",
"r  c #506936",
"t  c #60611C",
"y  c #11194C",
"u  c #2C194B",
"i  c #1A3759",
"p  c #0E2B4E",
"a  c #262847",
"s  c #373B5A",
"d  c #2D3052",
"f  c #13366A",
"g  c #27366E",
"h  c #50184E",
"j  c #6D1854",
"k  c #4C2A4B",
"l  c #6A294F",
"z  c #4B296E",
"x  c #702F6D",
"c  c #651C60",
"v  c #1A4855",
"b  c #334853",
"n  c #39744B",
"m  c #194777",
"M  c #0D506D",
"N  c #294778",
"B  c #2F4E6F",
"V  c #026578",
"C  c #306677",
"Z  c #1F6A53",
"A  c #4F4E57",
"S  c #576E4F",
"D  c #4F526E",
"F  c #6B5A6C",
"G  c #546675",
"H  c #666877",
"J  c #6A6C73",
"K  c #71734E",
"L  c #8C1617",
"P  c #B0370E",
"I  c #91332B",
"U  c #A52325",
"Y  c #FD1518",
"T  c #F41510",
"R  c #CF3411",
"E  c #F72E0D",
"W  c #D31629",
"Q  c #FB1623",
"!  c #F2142A",
"~  c #EB2829",
"^  c #D22523",
"/  c #AD492D",
"(  c #8D6829",
")  c #9E5E1C",
"_  c #D34F10",
"`  c #FE4A03",
"'  c #FA5506",
"]  c #F45214",
"[  c #C86711",
"{  c #FB7212",
"}  c #D1582F",
"|  c #EC542B",
" . c #E26E27",
".. c #96295A",
"X. c #93316C",
"o. c #AE3670",
"O. c #A91C59",
"+. c #D3084C",
"@. c #D53570",
"#. c #E8366E",
"$. c #DD1861",
"%. c #904C6D",
"&. c #927170",
"*. c #A05E60",
"=. c #D74470",
"-. c #E4515A",
";. c #2F8B37",
":. c #4F8F3B",
">. c #6E8F30",
",. c #4DB33D",
"<. c #72AA33",
"1. c #7F9816",
"2. c #3A9D49",
"3. c #52924A",
"4. c #6F954F",
"5. c #55B04E",
"6. c #6FB04A",
"7. c #719468",
"8. c #79C349",
"9. c #7FC73F",
"0. c #98A819",
"q. c #AFB115",
"w. c #AA912A",
"e. c #90B030",
"r. c #ACAC28",
"t. c #9C931D",
"y. c #FB8903",
"u. c #FA9703",
"i. c #FA8B16",
"p. c #D4B211",
"a. c #F3AB0A",
"s. c #CFA12A",
"d. c #BBCD1A",
"f. c #B4F816",
"g. c #B2CB2E",
"h. c #ACFE36",
"j. c #B3F82D",
"k. c #92D831",
"l. c #F8CE0E",
"z. c #D4F310",
"x. c #EAFA07",
"c. c #F8FC05",
"v. c #F4F012",
"b. c #D2ED2D",
"n. c #EFEC29",
"m. c #D6D122",
"M. c #8AB14C",
"N. c #929D58",
"B. c #8BCA50",
"V. c #B6D24E",
"C. c #AFF14A",
"Z. c #8CE876",
"A. c #D2ED4F",
"S. c #D3E757",
"D. c #2E308C",
"F. c #26359E",
"G. c #5C32A9",
"H. c #0C548E",
"J. c #31548C",
"K. c #0C6E8D",
"L. c #366C91",
"P. c #3872AA",
"I. c #125EA5",
"U. c #4C6F8F",
"Y. c #6F778C",
"T. c #4B77AB",
"R. c #5B5397",
"E. c #2A4DCC",
"W. c #3349F4",
"Q. c #297CC2",
"!. c #5A53DE",
"~. c #4E3DCB",
"^. c #96229F",
"/. c #E23D84",
"(. c #847B93",
"). c #E34481",
"_. c #907AF3",
"`. c #0C868F",
"'. c #0C9EB2",
"]. c #538C98",
"[. c #788696",
"{. c #5788B5",
"}. c #4E88B2",
"|. c #6888AF",
" X c #59ADB0",
".X c #72CFA3",
"XX c #368FCF",
"oX c #12B2CF",
"OX c #30A0DE",
"+X c #568CC2",
"@X c #5798C8",
"#X c #5093CE",
"$X c #6597CF",
"%X c #55A8D2",
"&X c #65A8DA",
"*X c #6DADD6",
"=X c #5CACEA",
"-X c #5BB6EA",
";X c #59AEF7",
":X c #5DB3F5",
">X c #5DB4FC",
",X c #5DBBFC",
"<X c #59B8F5",
"1X c #4BB2EE",
"2X c #68ADE8",
"3X c #64B3EC",
"4X c #6AB3EC",
"5X c #67B5E6",
"6X c #75B5EC",
"7X c #68ADF7",
"8X c #64B5F5",
"9X c #6AB4F4",
"0X c #63BBF4",
"qX c #63B5FB",
"wX c #6AB5FB",
"eX c #65BAFC",
"rX c #6ABAFC",
"tX c #69B9F5",
"yX c #74B6F8",
"uX c #73ADF1",
"iX c #408AE9",
"pX c #56C1FB",
"aX c #6CC1F8",
"sX c #00C1D3",
"dX c #8F8D96",
"fX c #9397AA",
"gX c #B7B5BB",
"hX c #A9A8B1",
"jX c #9E9DA8",
"kX c #8DE38D",
"lX c #94E385",
"zX c #B3B5C8",
"xX c #959DDF",
"cX c #C8BBC4",
"vX c #EDBBCB",
"bX c #BBC2D1",
"nX c #B7CAEA",
"mX c #C9C9CA",
"MX c #CACAD4",
"NX c #D2D1D3",
"BX c #EFCFD8",
"VX c #D8DBE7",
"CX c #D6D5ED",
"ZX c #EDDBE6",
"AX c #E9E9EC",
"SX c #FAF7EE",
"DX c #EAEAF6",
"FX c #F9EBF4",
"GX c #FCFDF5",
"HX c #FCF6FC",
"JX c #F5FDFC",
"KX c #FDFDFD",
"LX c #F5F6F7",
"PX c #EEF3EF",
"IX c #D3E4E7",
"UX c #C0BFBD",
/* pixels */
"8X8X8X8X8X8XeX8X3XwX8X8X8X8X8XtXeX:XeX,X>X8X3X3X4X8X:XrX>X<XpXuX-X0XqXqXqXeX<X,X<X>X:XeXeXqXqX>X8X8X8X8X8X8X8X8X8X8X8X8X8X8X8X8X",
"8X8X8X8XqX8X8X8XtX8X8X8X8X8X3X8X8X:X8X:X:X8X0X8X8X:X8X7X0X1X<X7X5X-XrXqXtX3XtXqX8XwX8X8X8X8X8X0X8X8X8XeX8X8X8X8X8XeXqX8XeX8X8X8X",
"eX8X8X8X8X8X8X8X8X8XqXeXqXeX:X8X4X4X4X3X8X0XeX:X,XqXyX$XyXaX<XwX2X9XeX=X0X2X9X7X8X8X8X9X3X4X3X5X8X8X8X8X8X8XqX8X8X8X8X8XwXqX8X8X",
"8X8X8X8X8X8X8X8X:XqXeX8X:X8X:X>XtX8X2X8XrXeX>X>X,XwX$XL.{.5XrX>X8X8X8X9X&X6XyXqXqXwXeXqX8X8X3X2X8X8X8X8X8XeX8X8X8X8X8X8X8X8X8X8X",
"8X8X8X8X8X8X8X8X:XqX8X8X2XrX8XqX,X:X:XtX9XwX:XqX:X$XH.f H.{.2X2X8XwX7X2XJ.L.#X<X4XaX0X>X;XeXtXwX8XqX8X8X8X8X8X8X8X8X8X8X0X8X8X8X",
"8X8XeX8X8X8XeX8XqX8X9X6X4XrX:XqX,X,XaX2X$X$X&XuX&XT.f f M J.}.*X*X%X#XP.J.f L.&X$X%X%XrX,XqXqX;X8X8X8X8X8XqX8X8X8X8X8XeX8X8X8X8X",
"8X8XqX8X8X8X8X8XqX8X6X2X#X4XwX>X,X:X5XU.p p p p p y p H.H.M p y ; p i C U.b ; y ; p f {.8X8XqXqX8X8X8X8X8X8X8X8X8X8XqX8X8X8X8X8X",
"8X8X8X8X8X8XqX8XqX7X2X{.H.#X9XwX-X5X$XB * ; > : ; : p H.H.f * + o = C ].8   o o .   @ }.6X8X8X0XeX8X8X8XeX8X8X8X8X8X8X8X8X8XqX8X",
"<X,X>XqXqX8X0X<X5X7XT.n 7.b %XqX$Xm B ; S V.V.m.].f H.I.K.v *   = L.L.> +   # = . . X |.yX>X<XpXwX;XpX0X7XyX8X-X8X8X8X8X8X8X8X8X",
"rX8X8XeXrX9X0X2XyXT.C 4.N.; m L.C v 0 t V.S.6.].K.V H.H.V M p ; L.%XL.p & = k > & O # U.3XyXuXuX5XaXpX<X2XyX7X0X8XeX8XqXeX8X8X8X",
"3X3X2XwXwX;X9X=XT.B 0 e.M.r v 8 8 3.<.j.S.N.V H.V K.K.`.V v v C 1X}.J.g s c l l : L L b M v s g v @X:XtX9XyX8XqX8X8X8X8XwXqX8X8X",
"9X9X8XqXqXqX7X=Xv Z 3.6.M.M.<.:.:.>.k.S.7.H.I.V M K.'.oXV M L.%XXXD.c G.^.^.^.c % W ! < o     o + {.;X7X7X3X8X;X8X8X8X8X8X8X8X8X",
"qXqXeX:X>XwX7X#X9 0 6.6.B.B.B.B.9.4.r ; f H.K.Z V K.K.oXM P.%X#XM z ^.^.^.^.^.c 7 ! T <       . + +XaX>X-X-X,X9X8X8X8X8X0X8X8X8X",
";XeXtX3XuX2X{.L.0.<.:.,.<.B.<.B.4.S [.fXU.M '.'.'.'.'.'.M K.oXoXd l O.^.^.^.x l +.! Y <     .   # T.<X<X0X<X0XyX8X8X8XeX8X8X8X8X",
"eX-X@XL.L.U.b 9 x.d.<.;.,.8.6.:.G G U.fXY.; M V V K.K.[.%.D V J.l ..O.X.G.c l P ~ E E L 1 2 2 1 1 A C L.&X;X:XuX8X8XqX8X8X8X8X8X",
"8X%X].B i b 9 r v.c.d.<.:.<.:.b b hXk fX[.: J R.H H F X.#.o.k l o.o.O.X.G.h / E ' ' ' E ~ ! Q Y W <   * {.aX,X9X8X8X8X8X8X8XqX8X",
"wX}.Z 3.3.2.2.,.n.c.c.g.r n ;.8 s fXD zXhXb PXJXPXJXVXA X./.).#.#.#.#.o.l - I ` ` ] ] T Y Y T Y T $ o + %X&X6XyXwX8X8X8X8X8X8X8X",
"3X3X{.v 8 q ;.5.c.c.c.d.q * p ; y D gXKXjXA PXLXGXKXKXZXJ X.).#.).#.-.@.c 4 ) ' ` ` ] E Y Q Y Y ^ <   & XX<X2X;X8XqX8X8XqX8X8X8X",
"8XqX7X+Xv 8 ;.6.0.q.l.v.q.> = = = : AXKXVXmXKXGXGXKXHXJXmX&.l ..#.).@...l - I { { ] ` E E T T E R 2 < 2 U. X}.aX8X8X8X8X8X8XqX8X",
":X;XwX6Xi 8 0 5.<.1.q.v.v.q.t.t.K % MXKXKXKXKXKXGXVXfXLXKXMXY.- o.o.o.4 5 ( [ i.' ' ' ' ] ` ] | E ^ W W % @ * T.8X8XwX8X8X8X8X8X",
"5X-X8X2Xv 9 0 ;.5.6.0.q.m.m.v.d.M.J AXKXGXKXKXKXVX|.v hXAXKXVXH k h l 5 ) p.y.{ ' ' ' ` ` ' ' ' ` E Y Q < . X {.8X8X8X8XqX8X8X8X",
"5X:X>XuXg ; q ;.2.5.6.e.r.q.t.t A AXKXSXGXKXHXGXY.f V i cXKXKXVXS y u w V.a.y.{ { ' ` ' ' _ _ _ } ^ ~ W $   X }.8XqX8X8X8X8X8X8X",
"7X,X:X*Xs % , q ,.5.8.M.e.e.M.w D HXGXGXKXKXGXSXdXf P.i cXJXJXKXIXJ = p e q.a.u.{ ' ' _ P 3 4 4 7 5 1 L $ O . ].8XeX8X8X8X8XqX8X",
"2XrX#XB N.r.>.q 5.5.6.<.k.<.<.0 D LXGXKXKXKXKXKXIX|.D.zXFXGXJXGXGXmXbXnXhXK q.l.u.i. .[ ) t.t.t.t.w.( ) O . + XX8X8X8X8X8X8X0X8X",
"aX XG t a.a.w.q 0 ;.2.5.6.5.;.G dXHXGXKXHXHXFXBXZXBXjXAXKXGXSXGXSXKXMXhXDXA t.c.a.u./ ( r.n.n.n.l.n.l.% $ O o }.3XpXpX;XeX2X4XyX",
":XP.A i.a.{ } e t q 0 2.3.;.v G NXKXJXKXKXFXvXBXvXBXFXGXFXKXKXLXJXKXgX[.DXA r.v.a.[ ( e.A.A.b.S.n.n.p.> y & @ XX6X7X;XqX0XaX-XwX",
">X}.5 | } | ]  .} I q t t q % R.MXJXJXKXFXHXZXvXBXBXSXKXKXPXVXJXKXHXJXPXVXr 0.n.s.7 V.A.A.9.B.M.S.A.p.w 5 - # ].*X*XyXyX#XaX<X<X",
"eXP.5 ~ 6 / | ' { } [ _ } } 5 D mXJXKXKXHXKXZXBXvXBXKXGXSXjX(.FXKXHXKXMXG 6.j.z.q.4 V.j.9.5.5.8.M.V.n.p.s.( 7 s i v @X@XB {.-X>X",
"9XP.5 } 5 > I _ R ] { ' ] | 6 G NXPXKXKXKXVX(.mXFXFXJXLXKXNXdXJ F F G U.U.Z.j.f.d.> M.9.5.5.5.5.B.g.n.n.l.a.) % + * ].R.X.z @X7X",
"5X$XD %.s = 5 [ P P _ _ ] | 6 U.NXGXKXGXKXVXJ dXjXjXfXfXfXjXY.= = y i P.%X.Xh.k.0.S 6.,.4.&.&.&.6.6.C.C.n.v.p.) - * v u /.z P.wX",
"-XyX$XJ.N * e a.P P P P | } 4 G mXGXGXLXHXAXdXA 5 a = g m D.J.m m M L.>X5X.XC.6.9 6.8.3.&.-.#.#.%.N.7.M.V.g.g.s.k 5 k j =.k L.tX",
"pX8X>X-XC @ w i._ P P P _ P 7 G mXSXJXKXKXPXhXhXjXY.M P.#XQ.XXOXiXXXXXXXXX.XB.7.d 6.5.&.).#.+.$.$./.*.4.7.5.6.>.%...o.@.#.4 L.2X",
"8XwXtX1Xg - s R.a.p.a.u.i.a.7 Y.mXLXKXKXKXLXLXPXUXjXJ B D.E.E.E.J.H.p d p a d p > 6.,.*.} d - O.+.+.+.-.o.%.%.%...@.$.$.O.h L.eX",
"eXwX3X1XJ.- g D.F F %.*.&.&.d G mXKXKXJXKXKXFXMXhXjXdXH N g H.f g T.xXzXzXgXhXY.; M.s.-.o.- = ..+.+.+.$.#.@.@.@.+.+.o.R.s > U.=X",
">XwX3X5XB - f D.D.~.!._.!.~.D.D NXGXKXKXKXKXKXNXmXUXmXmXfXY.Y.Y.(.CXKXKXGXKXJXNX[.K } R I 3.t.6 O.$.+.+.$.$.$.$.+.X.T.'.V p T.wX",
"qX&XT.].A - y F.R.xXxX!.W.E.f J NXAXKXKXKXJXKXKXGXGXKXKXKXKXKXGXHXKXHXGXGXGXKXJXVXA / e 3.lXC.t j ^.O.O.O...o...X.U.`.K.v N T.7X",
"2XJ.= @ 4 4 d ~._.xX_.W.W.F.B A hXNXPXKXKXKXKXKXKXKXGXGXKXKXGXGXKXKXSXKXKXKXJXKXSXhXF U.1X.XZ.r D.E.W.W.L.K.OXoXoX2.Z 8 v U.;X>X",
"tXL.X . 1 6 d G.~.G.D.D.p > 4.4.F gXLXJXKXKXKXKXGXKXGXKXKXJXKXKXLXKXKXKXKXKXJXJXPXNXjXG I.1X8.C.S F.W.W.I.`.oXsXK.4.p.p.t.e T.7X",
"=XL.+ O 2 L z G.~.F.u > e.0.h.>.s zXLXHXKXKXKXKXKXJXLXKXKXKXKXKXKXKXKXKXLXHXKXKXJXZXNXJ N %XZ.f.>.f W.W.E.I.'.`.4.s.s.t w G #XaX",
",XJ.o O L L z G.F.E.g e z.z.j.4.A NXHXJXKXLXKXKXKXKXSXKXKXGXKXGXLXmXMXJXKXKXKXGXKXGXMXJ M pXkXh.>.> R.^.W.E.J.r a.a. .7 a T.wX7X",
"8XL.o o 1 ~ W 1 5 F.N t.z.b.k.4.G cXFXKXKXKXKXGXKXKXGXKXKXKXKXJXKXF [.HXKXHXKXHXKXGXmXH N =X8.h.6.e / | =.~.R.{ u.{ | / : }.7XyX",
"4XJ.    2 Q ~ } s.6 w.v.x.j.:.S Y.A VXKXLXGXKXKXJXKXGXHXKXKXKXKXKXH Y.JXLXJXKXKXHXGXmXH B =XkXh.f.r.6 /  .-.-.] {  .I % @ +XyX<X",
"yXU.o . 2 Q Y ] u.[ p.c.z.t hXbX(.> VXKXLXKXGXKXKXKXKXHXKXKXKXGXPXJ J KXJXJXJXJXGXmXzXY.m 5XZ.h.h.z.p.e 5 5 6 ] -.U % X & $X9X<X",
"tXJ.    1 Y Y ' { y.l.m.t hXAXNXdXJ Y.bXKXGXKXKXKXKXKXJXKXGXGXGXGXUXfXjXJXKXJXJXHXNX(.i m %XZ.f.h.x.x.q.) ) ( 6 6 I $ . & #XwX8X",
"3XU.    1 Q Y ' i.{ l.q.> DXSXAXgXG C |.MXKXKXLXPXPXLXPXLXPXSXSXPXAXdX: jXHXJXKXKXKXD p XX#XZ.j.j.c.x.c.u.{ y.6 1 U $ . * %X7X7X",
"5XL.o   2 Y T { y.u.l.q.b DXSXDXjXC #Xg Y.GXKXVXNXgXmXzXbXbXcXcXzXjXF a d hXHXKXKXmXR.P.%X1XZ.h.h.b.v.c.a.i.{ R ! ! $ o @ @X7X:X",
"=XL.o . 1 Y Y ' y.y.l.q.w CXPXhXD {.=Xf Y.SXGXgXF a s i i f i d i d G U.= a hXKXNXG g #X1X<XZ.h.f.n.c.c.u.y.{ E Y ! O . & @X2X<X",
"wXL.. . 1 Y Y ] y.i.a.v.g.S mXPXhXK.iXH.Y.KXSXgXB s {.+X@X$X{.$X$X|.U.B U.a d dXJXbXJ.Q.1X1XZ.h.j.x.x.v.a.i.i.E T Q $ O # @X8XpX",
"qXJ.. . 2 Q T ' y.u.l.c.z.> zXKXMXi #Xf Y.SXSXzXD f 4XqXwXeX8X-XqXyX#XT.D D H H fXPXgXY.P.-XkXf.C.z.x.c.u.u.i.Q Q T < o + }.tXwX",
"qXU.X   2 Y T ] y.i.a.c.z.> Y.gX(.f #XH.Y.KXHXgXA v 3X7XwXtX8X8X7XwXwX@XU.H dXJ b PXSX[.H.%XlXj.h.x.c.v.u.y.i.E T ~ $ X * @X4XqX",
"2XU.o . 1 Y T ] y.y.a.c.z.> a u u p +XH.Y.KXKXhXA i 5X8X7XwXwX8X8X7XqXtX@Xa H J s FXGX[.M %XkXh.h.x.x.v.u.y.i.E Y T $   @ @X4XeX",
"5XJ.+ . 1 Y T ] y.u.l.c.m.> a h u g $Xf Y.JXKXgXA v 5XyX7X7X8X8X3XwX>XeX*Xp J J D DXKX[.B  XkXC.h.z.c.v.a.y.{ E Y T < o @ @X5X-X",
"3XT.f i 5 L P U ) [ w.r.e.> - u k C T.i Y.JXSXhXD B *XtX9XwXwXwX3XrX>X;X$Xp Y.H d AXHX[.i U.7.<.e.0.q.r.[ ) ) P U L 5 p i @X4XeX",
"wX7X2X&XG O O   # O O O , = & = + @ = & J JXGXgXD B 2X9X8XyX8XrXtXrX>XeX6Xb Y.H D DXKXY.= & , , X # O O o o O # O $ }.5XuXyXwXqX",
"8XwXrX0XC     + X X + o   & . . . o + = H bXzXdXz J.-X8X8XyX:XeX=XrX7X&XT.s D D s AXKXdX& + X   X o   o o o X X . # XXpXuX>X7XwX",
"4X2X8X2XC   O + o   o O . +   O . X = : : : : - a J.8X:X8XtX-X8XrX7X7X+Xp = u ; s VXLX(.= + . + o o     o o o o X . #X8XuXqX4X-X",
">XqX9X*XJ.* @ @ X X X X X X X X & ; & 7 O.o...h u B *X0X8X7X7X8X,X8XT.a h h j h - A zXdX* * @ + X X X X X X X X + p {.2X8XrX3X2X",
">XqX8XyX$X{.{.{.@X{.+X{.+X+X@X+X|.U.s x o...j h u J.&X0X7XyX9X8X,X3XT.y u - h c h u R.U.U.{.{.{.+X{.+X+X+X+X+X{.{.{.4XwX>XwXwX9X",
"eX>X=XwX0XtXrX9X,XqX>X>X>XqX>X,XwX9XT.D k h h u J.T.tXeXwXwX9X0XrX7X@XT.J.g y u h u y T.yXwXeX>XeXqXqX,XeXeX,X>X6X3XeX<X:XqXwXrX",
"9X8X8XqX;X<X,X;X8X8XtX9XtXtX8X9X>XaX=XT.B B g N +X4XrXeX7XuX9X3XwX9X8X2X&XL.N D.N N m }.6X8XqXqX0X8X8X0X8X8X8X8X:X>X8XeXqXwXqXqX",
"4XtX9X9X8X8XqXqXwX8XwX8X8X8X8XwX>X;X-X3X&X2X2X9X7XrXqXqXwX8X3X0X7X9XeX<XaX-X&X*X5X&X2X2X4X3X9X9XwX8XwX7X8X9XwX7XwXwXwX9X9X9X8X8X",
"4X3X2XtX9X3X9X9X>X8XqX8XqXqXqX8XyX9X=XrXwX2XwXqXrXwX;X8XwX8X;X8X9XwX:X-X,X8XtX9X8XwXeX0X8XtX8X3XwX8XwX8XwX8XwX8X9X9X9X7X4X3X4X3X",
"9X8X8X2X8XtX9X8X8X3X8X8X3X8X8X8X9XwXyXwX8X=XwXwX8XwX9X9X8XeX8X8XtXtX3X8XeX:XeX8X8XqX8XwXtXqX8X,X8X:X:X8X8X:X:X8XwXwX8X8X8X8X8X8X",
"8X8X8X:X8X8X8X;X9X8X9X8X9X8X9X8X>X:XeX3X<XrX3X2X8X8XtX9X=X8X8XwX8X9X7X9X9XwXwX>X-XrX-XtX8X=XwXqXtX9X9XtX9XtXtX8X:X;XeXqX>XqXwXwX"
};
