/* XPM */
static char *_979293fb2944e9cef6b324bc7f1eb91ZQTAIQpmWOMBs1XX[] = {
/* columns rows colors chars-per-pixel */
"64 64 256 2 ",
"   c #161939",
".  c #0C1A33",
"X  c #2E1939",
"o  c #132D32",
"O  c #29283A",
"+  c #31322E",
"@  c #292C19",
"#  c #4E2B33",
"$  c #6A2731",
"%  c #542920",
"&  c #1A4E33",
"*  c #2A4A2F",
"=  c #337032",
"-  c #245F15",
";  c #485013",
":  c #5B5E2E",
">  c #16184C",
",  c #2E194B",
"<  c #1A3658",
"1  c #112B4F",
"2  c #272845",
"3  c #28385A",
"4  c #30304C",
"5  c #183865",
"6  c #113169",
"7  c #2A346D",
"8  c #3B1A69",
"9  c #50164C",
"0  c #6C144F",
"q  c #4E2D4E",
"w  c #6E2A51",
"e  c #52286E",
"r  c #6B2564",
"t  c #1B475C",
"y  c #324B50",
"u  c #346E49",
"i  c #104F70",
"p  c #274768",
"a  c #274B78",
"s  c #2A547C",
"d  c #345579",
"f  c #324A6E",
"g  c #056576",
"h  c #316A72",
"j  c #186C5C",
"k  c #4E535C",
"l  c #536F51",
"z  c #6A6F48",
"x  c #455B78",
"c  c #565773",
"v  c #4F4E6B",
"b  c #6A5872",
"n  c #596678",
"m  c #556A70",
"M  c #66686D",
"N  c #666774",
"B  c #736971",
"V  c #6F4C4B",
"C  c #B0370B",
"Z  c #933028",
"A  c #D60138",
"S  c #D13B14",
"D  c #9F5B21",
"F  c #CC4E14",
"G  c #FF5617",
"H  c #E55211",
"J  c #FE7114",
"K  c #D3572D",
"L  c #EE592F",
"P  c #F2662B",
"I  c #C9681B",
"U  c #972A58",
"Y  c #A91274",
"T  c #933268",
"R  c #AE366D",
"E  c #9E1C4D",
"W  c #D20950",
"Q  c #D6356C",
"!  c #E9376E",
"~  c #E31759",
"^  c #8D4754",
"/  c #8F4E66",
"(  c #926F72",
")  c #A46665",
"_  c #D64575",
"`  c #ED417B",
"'  c #D15649",
"]  c #308836",
"[  c #4F8E39",
"{  c #709234",
"}  c #56AD3E",
"|  c #6EAA32",
" . c #399B45",
".. c #219466",
"X. c #52924B",
"o. c #6B9352",
"O. c #55AE4C",
"+. c #77B946",
"@. c #6BAE4A",
"#. c #6FA468",
"$. c #79C34C",
"%. c #98A218",
"&. c #AEB213",
"*. c #8F8E2D",
"=. c #93AD31",
"-. c #A6AB2E",
";. c #AE941F",
":. c #F6990C",
">. c #D7AF15",
",. c #ECAB0A",
"<. c #D4B22F",
"1. c #D39328",
"2. c #8BC63A",
"3. c #B5D03A",
"4. c #B5DA23",
"5. c #F2DA15",
"6. c #FAFD04",
"7. c #F3EB12",
"8. c #F2E72D",
"9. c #DAD528",
"0. c #8B8E4F",
"q. c #8BAD4C",
"w. c #928463",
"e. c #8FAB5D",
"r. c #88C84D",
"t. c #ADD651",
"y. c #C8EB4D",
"u. c #E9F646",
"i. c #CBDC51",
"p. c #2E338B",
"a. c #182E9D",
"s. c #4D2B8B",
"d. c #682EA4",
"f. c #0C528C",
"g. c #365785",
"h. c #30528D",
"j. c #0D698A",
"k. c #39638B",
"l. c #316D94",
"z. c #2C4FA3",
"x. c #3977A9",
"c. c #3775B3",
"v. c #0A62A6",
"b. c #48538D",
"n. c #596A86",
"m. c #476B97",
"M. c #4F7092",
"N. c #6A7588",
"B. c #747988",
"V. c #717A91",
"C. c #5446AA",
"Z. c #4877A8",
"A. c #487AB8",
"S. c #4E73A7",
"D. c #726095",
"F. c #324EF4",
"G. c #2748CE",
"H. c #4648CE",
"J. c #5E60E1",
"K. c #4B3CDF",
"L. c #8A318E",
"P. c #941EA8",
"I. c #94239A",
"U. c #E23D84",
"Y. c #837A90",
"T. c #9C5381",
"R. c #8A70E1",
"E. c #088591",
"W. c #0C92A5",
"Q. c #0BA8B7",
"!. c #3B8BA6",
"~. c #518E95",
"^. c #7A8298",
"/. c #4C84B8",
"(. c #5687B9",
"). c #4F88AD",
"_. c #6D8EAF",
"`. c #0CADCF",
"'. c #2AABCD",
"]. c #5A95CA",
"[. c #5999D4",
"{. c #4F8DC7",
"}. c #6595C8",
"|. c #699AD3",
" X c #5AA2D8",
".X c #53B2D2",
"XX c #66A7DA",
"oX c #71A2DD",
"OX c #5897EA",
"+X c #5BAAE9",
"@X c #5DB3ED",
"#X c #5AB8E8",
"$X c #5DAEF3",
"%X c #56AEF8",
"&X c #5DB4F4",
"*X c #5DB5FB",
"=X c #5DBAFC",
"-X c #59B9F6",
";X c #4DA9E5",
":X c #63ACEC",
">X c #6AAAE6",
",X c #75ACE7",
"<X c #63B3EC",
"1X c #6CB3ED",
"2X c #66B7EA",
"3X c #72B3EA",
"4X c #63AEF2",
"5X c #6AADF7",
"6X c #73ADF5",
"7X c #64B4F6",
"8X c #6AB4F4",
"9X c #63BAF4",
"0X c #6ABAF4",
"qX c #64B5FB",
"wX c #6BB4FB",
"eX c #64BAFC",
"rX c #6ABAFC",
"tX c #73B7F6",
"yX c #689DE4",
"uX c #66C1FD",
"iX c #6BC2EF",
"pX c #59C2FC",
"aX c #11C3C7",
"sX c #8E8D98",
"dX c #9097AA",
"fX c #A396A4",
"gX c #A5A6B5",
"hX c #B6B6BB",
"jX c #AEADB5",
"kX c #93A2AE",
"lX c #C1BDBD",
"zX c #C7C6BC",
"xX c #B7B8C8",
"cX c #B0B4CD",
"vX c #979EDB",
"bX c #C8BCC9",
"nX c #EBBBD0",
"mX c #BAC3CA",
"MX c #C9C8CA",
"NX c #C9CCD6",
"BX c #D7D6D9",
"VX c #D1CFCF",
"CX c #F2CDDB",
"ZX c #D7DCE6",
"AX c #D0D5EA",
"SX c #F0DBE7",
"DX c #EAE9EC",
"FX c #EAEAF3",
"GX c #F3F4F5",
"HX c #FCFBF5",
"JX c #FCF5FC",
"KX c #F5FCFC",
"LX c #FDFDFD",
"PX c #F8F7F6",
"IX c #F5F1F2",
"UX c #DFE6E8",
/* pixels */
"7X7X7X7X7X7X7X7X<X0X7X7X7X7X7X1X<X&XrX&X&X9X*X&X<X=X=XqX7X=XeX2X:XrX*XqXrX5XwX9X9XqX7X7X7X7X7X7X7X7X7X9X7X7X7X7X=X7X7X9X9X7X7X7X",
"7X7X7X7X7X7X7X7X9X7X7XqX7X&X7X9X9X<X<X7X7XrX7X7XrX;XeX1X0X@X=X2X0X&X-X9X4X4X-X-X7X7X7X7X7X=X7X7X7X7XqX9X7X7X7X7X7X7X7X7XqX7X7X7X",
"7X7X7X7X7X7X7X7XqX*XqXrX7XqX7X&X9X7X<X7X<X8X<X1XrX&XtX[.3XtX&X9X7X-X=X&XrXrX&X-X7X7X7X7X7X7X7X7X7X7X7X7X9XqX7X7X7X7X7X7X7XqX7X7X",
"7X7XqX9X7X7X=X7X&X9XqX9X&X7X&XqX7X7XeXrX7X7X7X7X*XtX[.l.{.3X7X-X=XeX@X0X>X0X2X9X7X7X7X7X7X7X7X7X7X7X7X7X7X7X7X7X7X7X7X7X7X9X7X7X",
"7X7X7X7X9XqX7X7X*XqX7X7X:XrX7XeX*XeXeX*X*X*XqX*X4X].f.6 f.{.3X*XqXrX:X3Xl.h.].8X7X7X7XqX7X7X7X7X9XqX7X7X7X7X7X7X7X7X9X9X7X7X7X7X",
"7X7X7X7X7X7XqX9XqX7X8XtX1XrX&XqX&X*X&X&XqXqXrX7X3X(.6 f.f.h./.rXwX7X].l.g.6 Z.1X7XqX7X9X7X7X7X7X7X7X7X7X7X7X7XqX7X7XqX7X7X7X=X7X",
"7X7X7X7X7X7X7X7XqX7X3XXX{.1XqXqX&X7X<X1XXX].].}.(.M.6 f.f.6 a <XtX[.!.s ).k.{.7X9X9X7X7X7X7X7X7X7X7X7X7X7X7X7X9X7X7X7X7X7X7X7X7X",
"9XqX7X7X7X7X7X7X7X7X3X/.f.[.8XqX&X7X1XXXZ.p < t t 1 1 f.v.6 a >X>Xl.l.~.t (.+X-X7X7X7X7X7X7X7X7X7X7X=X7X7X7X7X9X7X7X7X7X7X7X7X7X",
"-X=XqXqXqX7X&XiX#X4X/.u o.y |.wX].t p 4 z t.t.<.~.i f.f.v.6 g..Xg.!.l.s ].#Xx.S.,XrX$XqX<X2X0X*X7X=X7X7X9X9X7X7X7X9X9XqX7XqX7X7X",
"rX9X7XrXrX7X9X+XwXc.h { 0.o 5 l.h y u [ t.i.#.#.s f.j.g j.i t l.x.].l.< d b.e v c.>XqXeX9X1X7X&X7X7X7X7XqX7X7X7X7XqX9X7X7X7X7X7X",
"1X<X:XqXqX4X7X+X/.a = q.r.: y & & [ | y.y.e.f.j.g j.j.E.g < 1 h .X/.g.8 8 e w w 5 XXqX*X7X<X7XeX7X7X7X7X7X7X9X7X7X7X7X7X7X7X7X7X",
"7X8X7XqX*XqXqX+Xt = X.@.q.q.{ X.] | 3.y.#.z.v.i g j.Q.`.g i l..X{.p.s.L.I.I.L.r i oXrXqX&X@X1X7X7X7X7X7XqX7X7X7X7X7X7X7X7X7X7X=X",
"qXqX9X*XqXrXwX].* = } +.r.r.$.r.r.o.: o p f.g g g j.v.Q.i k.;X'.i 8 I.P.P.P.L.e a |.7X*X7X7XwXqX7X7X7X7X7X7X7X7X7XqX7XqX7X7X7X7X",
"%XrX9X1X8X,X(.k.-.{ [ } +.r.$.$.@.y ^.dXM.i W.Q.Q.W.Q.`.i s '.`.2 r L.I.P.P.s.s.(.1X*X=X7X7XwX4X7X7X7X7X7X7X7X7X7X7X7X9X7X7X7X7X",
"eX<X].l.k.k.y & 6.4.| [ } $.@.X.M n.n gXV.o i j.g g h S.b k l.i q U U T L.s.b.}.8XrX*X=X<X7X7XrX9X7X9X7X7X7X=X7X7X7X7X9X7X9X7X7X",
"qX.X~.p 3 y * : 7.6.4.| [ | [ y y gX+ sX_.2 b D.n.n.b R Q R q r / Q Y T r 8 c.2XeX*X*X=X7X1X4XrX9X7X7X7X7X7X7X7X7X7X7X7X7X7X7X7X",
"qXZ.u X. . .O.O.7.6.6.3.l = X.& 7 dXk cXgXk DXKXKXKXZXV T U.U.! ` ` ! Q U > !.-X<X1X6XwXqX&X*XqXqXqXwXwX8X1X1X2X7X7X7X7X=X7X7X7X",
"7X:X{.t & - ] O.6.6.6.&.- o o . > e hXLXkXk GXPXHXJXLXUXB r _ ! ` ` ! Q $ 2 /.@X=XqX5XqX&X9X7X7X<X7X7X7X7X*X=X*X7X7X7X7X7X7X7X7X",
"wXwX5XA.p * = @.&.&.5.7.%.@ >   . O DXLXBXMXHXHXHXHXKXKXBX( 9 U _ ! Q U w > Z.tX=X*XqXeX7X-XqXqXrX4X7XrXqX&X*XeX7X7X7X7X7X7X7X7X",
"qX%XeX,Xt & = O.| | &.7.7.&.%.%.{ @ NXJXLXLXLXLXKXBXkXFXLXNXB.# T R U w , k.[.&X:X7X7XeX#X2X$X$X7X&X2X9X<X@XwX8X7X7X7X7X7X7X7X7X",
"#X#X8XXXt & =  .O.| =.&.5.5.9.5.w.o.DXHXLXLXLXLXUX_.p cXDXLXZXn # 9 q q d }.uX=X8X8XqX+X2XiX0X4X<X9X9X&X@XrXtX5X7X7X7X7X9X7X7X9X",
"iX&XqX6X7 o & -  .O.q.=.%.%.%.: M DXLXHXHXLXJXHXV.5 i 1 bXJXLXUXc X   3 }.iX-X-X2X7X*XeX1X[.[.5X>X[.OX5XeX&X$X7X7X7X7X7X7X7X7XqX",
"7X*X7X|.3 @ - - } O.r.r.=.| q.: v GXHXHXHXHXHXHXY.5 x.< bXPXKXLXFXN   O p (.1XqX9X9XeXwX).f O # 2 4 d (.8X0X&XqX9X7X7X7X7X7X7X7X",
",XeX Xh w.*.{ - O.O.O.+.2.| @.= v GXKXKXLXLXLXLXZX}.7 cXIXHXKXHXKXMXNXmXvXm.{.,X$XrX+XZ.M *.;.;.;.;.0.l ).3XrX*X7X7X=X7X7X7X7X7X",
"<X[.M.D ,.:.;.- ] ]  .O.O.O.u m sXJXLXLXJXJXIXCXSXVXfXIXLXLXJXLXLXLXMXjXIXk Z.7X2X1XA.m &.8.8.5.7.7.>.% A.&X-X9XrX9X9X-X4XqXrX8X",
"7Xc.4 >.,.J F V ; ; ]  .X.] & m VXLXKXLXJXJXnXnXnXCXHXHXGXLXLXKXLXLXmXB.DX3 Z.9X<X!.l -.u.y.y.y.8.8.<.; z. XeX9X&XrX:X9XwXuX+X7X",
"&Xc.# P F G L P K D ; - = ; o b NXKXKXLXJXJXCXVXnXSXHXHXLXKXUXKXLXPXLXFXAXx A.7XOXy q.8.y.2.r.r.y.u.<.% y m  XqX*XqX4XtX].#X#X-X",
"2Xx.9 G Z Z L G G K I I I K $ N MXKXLXLXJXLXSXCXnXCXLXHXPXfXB.FXHXLXLXAXb.A.1XqXOX2 i.y.r.O.O.+.r.3.u.9.<.D x ;X&X*X7X{.b.(.2X@X",
"0Xx.# K # # $ F S H J G G H $ x VXGXLXPXLXUX( NXJXJXLXKXLXSXfXb b N n.M.).3X0XrX X& q.2.O.O.O.O.+.t.u.7.5.,.D u  XiX{.g.L.c (.4X",
"1X[.c V m.< % I C F F H G L $ n.VXHXLXPXJXZXM sXfXfXsXkXdXdXN.X > . 3 Z.3XuX+X Xl.l o.@.#.w.w.B o.r.r.4.8.8.>.D M.m.s q Q e l.wX",
"1XrXyXb. Xg.: ,.C C C C F ' $ n MXHXPXHXJXFXsXk q 4 . 5 p a a i a i Z.6X&X@X7X{.y #.} o.( _ ! ! ) w.#.+.t.9.<.<.q q 9 0 Q q x.6X",
"eX%XpXXX#Xg.V :.C C C C S C % c MXPXHXKXLXIXjXgXfXn.p ].,X>X+X7X,X>X>X+X%X%X>XS.+ $.| ) _ U.W W ~ ! T.e.} O.O.X.^ U R ! ! 4 l.5X",
"1X1X0XyXk.< e C.>.1.<.:.:.>.; n VXPXLXHXLXGXGXIXzXsXN.d (.3XwXqX,Xm.< < 3 4 3 1 + #.@.) / e 9 E A A ~ _ R / ^ / T Q ~ W W 9 l.7X",
"4X@X7X8X{.d 5 p.( / ) T.( ( q b MXLXLXLXLXKXGXNXjXfXdXN.x g.a h.g._.cXxXjXxXcXV.& e.-.L Z   X E A A A ~ ~ Q Q Q W W T.b f X M.@X",
"qX-X=XeX>Xg.6 7 p.C.R.R.K.H.7 b VXKXLXLXLXLXLXBXzXzXVXhXdXB.V.V.V.AXLXJXJXLXJXNXX.B I K ^ h k.e E W W W ~ ! ! ~ W T m.W.g 1 l.rX",
"&XeX*XqX5Xk.7 p.z.R.R.J.F.G.6 n VXDXLXLXLXPXLXLXHXHXHXLXLXHXLXLXIXJXJXHXHXHXLXLXAXV ^ w m.iX#Xv 0 Y Y Y Y E T T T S.W.g < a A.6X",
"wX7X$X5X6Xk.6 p.R.vXJ.H.G.a.7 n.jXVXFXLXLXLXLXLXHXLXGXLXHXLXHXHXLXLXGXHXHXLXKXLXGXjXb n.$X*X%Xl.z.K.F.F.z.l.Q.`.`.E.j t y A.wXqX",
"wX8X4XwX6Xh.7 d.R.d.p.6 6 6 S.M.M hXGXLXLXLXLXHXHXLXLXLXLXLXLXHXGXLXLXKXLXLXLXKXIXlXfXn Z.>XrX[.h.a.F.F.f.E.aX`...{ >.>.%.: S.6X",
"7X8XqXqX1Xk.p.C.H.p.8 p.S.).XXm.4 xXJXKXLXLXLXLXLXLXLXKXKXKXKXLXLXKXLXLXKXLXLXLXKXUXVXN 7 XX8X7Xm.a.K.K.G.v.W.E.{ <.;.D z M.OX#X",
"7X<X7X&X8XS.h.s.G.a.7 h.3X&X0Xx.k NXJXLXLXPXLXHXLXHXHXLXLXLXKXLXLXMXMXJXLXHXHXHXKXLXBXc a -X&XqXm.3 D.J.F.G.h.l ,.,.I $ 2 /.eX,X",
"7XwX7X9X<X1X{.f.p.h.p.c.5XqX|.M.c NXPXHXHXHXLXLXLXHXHXLXHXLXKXLXKXb sXJXLXJXHXLXLXJXVXM a 6X%X=XA.k F L / H.D.P :.:.P Z c {.eX<X",
"7X7X7X7X9XtX6X|.yXf.A.yXwXXXl.x N.k ZXLXHXHXLXLXLXLXLXLXLXLXLXLXKXn B.KXPXKXHXLXLXIXVXc a tX4X&X,X{.e C ' ' L G G L Z v }.rX4X0X",
"qX7X7X7X@X<X3XtXrX X XtXoXa kXmXY.O ZXLXGXLXLXLXLXLXLXLXLXLXHXHXGXM B.KXKXKXKXLXIXVXlXn a 1X4X@X1X$X(.k $ $ Z H L Z n [.*XqXwX0X",
"wX7XqXeX7X&X@X@X*XuX<X}.k.kXUXBXsXB B.mXLXHXLXLXLXLXKXPXKXHXHXHXHXhXsXkXKXLXKXHXLXVXsXy a :XwX8X+XqX6X{.c.c.b.V $ b |.*X*XqX7X@X",
"7X7X7X7XeX7X&X-XeXqX7X(.3 DXHXDXxXn x ^.NXLXLXGXIXPXHXKXGXIXIXIXGXDXsXO gXGXLXPXLXLXk 1 /.<XrX7X1X=X%X7X1X9X+Xh.d ].8X%XqX<X@X=X",
"7XwX7X4X7X7X=X9X5XqX8X/.3 UXHXDXgXx |.s V.LXLXZXVXhXxXmXmXbXlXhXcXkXb 2 4 gXKXLXLXNXn.S.tXeXrX8XtX-XpX&X$XwX8X1X-X@X7X0X@X2X8XwX",
"@XqXwX8XwX7X7XeX8X7X9X/.f ZXKXgXx _.,Xa ^.PXHXhXv 4 3 < < < 3 3 5 < n n.  2 gXLXZXx V.,X+XeX$X4X2X<XqX*XeX=X4X6X=X9X2X<X@XqXwX4X",
"=X7X4X4XtX5X4XrX@XuX7X.X_.x NXUXvXk.OXl.n.HXPXjXv f (.}.].].].}.}._.m.d n.2 2 sXKXmXm.A.rX*XeXrXeX9X7X6X6X1XqX*XwXqX<XwXwXqX7X0X",
"7X7X7X7X4X7X7XqX7X7XqX7X Xt cXLXMX3 }.s N.HXJXxXv d 1X&XqXwX7X7XqXqX[.Z.d n M M dXDXhXN.Z.tXqX<X7X8XqX7X7X8X7X7X7XqXqX7X7X7X7X7X",
"7X7X8X7XwX7X7X7X7X7X7X@X|.3 sXjXsX1 XXg.N.HXIXjXc f 1X*X4XwX<X*XwX7X1X].m.n sXB y FXJXsXs :X&XeX7X7X7X7X7X7X7X7X8X7X7X7X8X7X7X7X",
"7X7X7X7X7X7X7X7X+X7XrX9XoX> , X , 1 ].h.B.LXHXhXv a 1X9X&X8X8X&X8X7X9X:X|.f N B 3 IXLXV.a 8XqX:X7X7X7X7X7X7X7X5X7X4XqX7XqX4X7XqX",
"7X7X7X7X7X7X7X8XqX7X8X8XXX< , # , p  Xg.N.HXHXhXv a 1XeX7XwX0X&X2X@X&XrXtX1 n B k DXLXB.h.1X7X7X7XqX8X7XqX7X7X7X7X7X8X7X8X7X7X8X",
"8X7X7X7X7X8XqX7XrXwX7X9X[.5 > , 7 {.1Xs N.KXKXgXc a >X9XeXwX7X=X<X&X-X=X,X5 B.B y FXJXY.a :X7X7X7X7X7X7X7X7X7X7X7X7X7X8X7X7X7X7X",
"7X7XqX7X7X7X7X7X5X1X7X9X>XA.S.m./.tX3Xs V.KXKXjXc d <X&XqX4X7X7X1X7X=XwX,X7 N.N y FXJXsXh.1XrX$X8X7X7X7X8X7X7X7X7X7X7XqX7X7X8XqX",
"7X7X7X7X7XwX7X7X8X8X7X7X9X5X6X3X%XtX(.f n jXcXsX3 d 1X&XqX4X7X&X<XeX@X>XA.3 k c k DXJX^.a >XqXrX7X7X7X5X7X7X7X8X7X8X7X4X7X7X7X7X",
"7X7X8X7X7X4X7X7X1X8X7X-X%X*XqX*X=X[.a > X 4 O X O a 1XqXwX8X7X7XqXeX>X(.6 . 2   4 BXJXV.a 0X7X7X7XqX7X7X7XqX7X7X7XqX7XqX8X7X7X7X",
"7X7X7X7X7X7X8X7X7X7X4X8XqX7X7X7X-X@X3 9 R R w 0 , d XX9X*X6X1X<X=X8XS.4 9 9 0 9 X q NX_.h.4X&X<X7X7X7X7X7X7X7X8X7X7X7X7X7X7X8X7X",
"7X7X7XwX7X7XqX7X7X7XqX7X7X7X8X7X7XXXp w R U 0 0 2 g.XX9X4X6XwX7X=X<Xx.> , , 9 9 , q c M.].wXrX0X7X7X7X7X7X7X7X7X7X7X7X7X7X7X7XqX",
"7X7X7X4X7X7X7X7X7X7X7X7X7X7X7X7X8X3XS.c q 9 , , g.A.0XeXwXwX0X7XrX4X].Z.b.1 , , 9 ,   m.tXqXqX:XwX7XqX8X7X7X7XqX7X7X7XwX7X7X7X7X",
"qX8X7X7XqX8X7X7X7X7X7X7X8X7X7XqX:XrX>XZ.f f f a ].>XrXeX5X5X7X9XwX8X7X1X>Xl.p.h.p.d a /.8X*XqXwX7X7X4X7XqX8X7X7X8XqX4X7X4X8X7X7X",
"7X7X7X7X7X7X7X7X7X4X7X7X7X7X7X4XrX*X*XqX>X2X2X>X5XwXqX4XqX8X<X7X:XwXqX=XuX@XXX,X<XXX3X>X$XqXqX4X7X7X7X4X7X4XqX7X7X7XqX4XqXqX7X7X",
"7X7X7X8X7X7X7X5X7X7XwX7X7X7X7XwXwX%X*XeXqXeX&X7X5XqX$XqXwX9X$X7X8X0X&X#X-X-X0X2X-X-X2X<X4XqXwX8X7X7X7XwX7X8X8X7XqX8X7X7X7X8X7X7X",
"7X7X7X4X8XqX7X7XqX8X7X7X8X7X7X7X5X0XrX4X+XqX=X7XeXrX8XwX7XeX7XwX8X7X4X7XeX7XeX7X=XqX7XwXeX&X7X8XqX8X7X7X7XqX7X7X7X7X8X7XqX7X7X7X",
"7XqX8XqX7X7X7X7X7X7X7X7X7X7XqX7X1X<X<X1XtX9X<X8X<X7X8X8X+X7X7XrX7X8X1X8X8XqXqX&XwX5X6X5X7X=X$X1X7X7X7X7X7X7X7X8X7X7X7X7X7X7X7X8X"
};
