/* XPM */
static char *_27e9d3ecf1d4ce1c14f8be457940b2foQOsIauA2hvHk8PW[] = {
/* columns rows colors chars-per-pixel */
"64 64 241 2 ",
"   c #010104",
".  c #03020B",
"X  c #09040C",
"o  c #09090B",
"O  c #020413",
"+  c #00021C",
"@  c #000A1D",
"#  c #0A0D16",
"$  c #140E16",
"%  c #04111A",
"&  c #0B111F",
"*  c #191314",
"=  c #29161C",
"-  c #000B23",
";  c #000D2B",
":  c #040926",
">  c #051628",
",  c #151C2A",
"<  c #121425",
"1  c #031A33",
"2  c #011D3B",
"3  c #011337",
"4  c #161A35",
"5  c #231A27",
"6  c #1E272B",
"7  c #12253A",
"8  c #222627",
"9  c #23262A",
"0  c #242A2C",
"q  c #292B2D",
"w  c #2B202E",
"e  c #242D33",
"r  c #272A35",
"t  c #2A3136",
"y  c #082645",
"u  c #142B49",
"i  c #002B50",
"p  c #163759",
"a  c #123150",
"s  c #283A4D",
"d  c #1D3A65",
"f  c #0B3F66",
"g  c #213967",
"h  c #2E4355",
"j  c #16486E",
"k  c #2C4A6C",
"l  c #3D4D61",
"z  c #375567",
"x  c #29587F",
"c  c #3D5E7D",
"v  c #545A58",
"b  c #4D4F4A",
"n  c #4C4F60",
"m  c #515B64",
"M  c #4C5B76",
"N  c #41556D",
"B  c #566167",
"V  c #546379",
"C  c #45607D",
"Z  c #636468",
"A  c #2C5C87",
"S  c #36618B",
"D  c #3C648E",
"F  c #386487",
"G  c #3E6590",
"H  c #396C97",
"J  c #3B719B",
"K  c #2F6895",
"L  c #4A5F8C",
"P  c #48698B",
"I  c #5C758A",
"U  c #42739C",
"Y  c #49739D",
"T  c #557698",
"R  c #4E7385",
"E  c #65768A",
"W  c #727789",
"Q  c #497BA4",
"!  c #477AA6",
"~  c #567EA3",
"^  c #778793",
"/  c #6D8D98",
"(  c #5A82A6",
")  c #4D8ABA",
"_  c #5688B2",
"`  c #778CAB",
"'  c #6D8FB3",
"]  c #5D95CA",
"[  c #6596C3",
"{  c #789BC3",
"}  c #6F9ED6",
"|  c #6DA1C9",
" . c #74A5CD",
".. c #76ADCC",
"X. c #64A5DD",
"o. c #6CABDB",
"O. c #67A5D9",
"+. c #77ABD8",
"@. c #7DB2DC",
"#. c #5BAEED",
"$. c #57ACED",
"%. c #5EB4ED",
"&. c #5BB5E7",
"*. c #5CAFF3",
"=. c #5AAFF5",
"-. c #5DB4F4",
";. c #5CB9F5",
":. c #5CB4FB",
">. c #5DBAFD",
",. c #55B2F7",
"<. c #6CADE6",
"1. c #64AEEC",
"2. c #6AAEEB",
"3. c #66A9E6",
"4. c #73AEE7",
"5. c #6DB3E6",
"6. c #64B2EE",
"7. c #6CB2EB",
"8. c #65B5E9",
"9. c #73B2E4",
"0. c #73B2EB",
"q. c #79B7E7",
"w. c #63AEF3",
"e. c #68ADF8",
"r. c #64B5F5",
"t. c #69B4F4",
"y. c #64B9F4",
"u. c #6ABAF5",
"i. c #63B5FA",
"p. c #69B4FA",
"a. c #64BAFC",
"s. c #6ABAFC",
"d. c #73B6F3",
"f. c #73BBF4",
"g. c #72BCFB",
"h. c #79B7F7",
"j. c #70C1F6",
"k. c #848598",
"l. c #849A99",
"z. c #999798",
"x. c #8F8C87",
"c. c #9495A3",
"v. c #969CAB",
"b. c #8F98A1",
"n. c #8FA2A0",
"m. c #9CA4A5",
"M. c #9FA8A7",
"N. c #9CA6A9",
"B. c #9EAAAB",
"V. c #97A3A3",
"C. c #9BADB1",
"Z. c #A1ABAD",
"A. c #A4A7A9",
"S. c #B3AAA7",
"D. c #A5B0AD",
"F. c #ABB9AD",
"G. c #ADB3AB",
"H. c #A5AEB2",
"J. c #ADA8BE",
"K. c #B4ADB3",
"L. c #A5B3B3",
"P. c #AAB4B5",
"I. c #AAB6B9",
"U. c #ABBBBB",
"Y. c #A7B7B9",
"T. c #B3BCBC",
"R. c #B6B8B7",
"E. c #B3B6AD",
"W. c #C3BBBF",
"Q. c #B5C0BC",
"!. c #82B3D9",
"~. c #82A7D3",
"^. c #B7BCC8",
"/. c #AEBDD0",
"(. c #A9BCC3",
"). c #84B4E7",
"_. c #C4BDC3",
"`. c #B6C2C3",
"'. c #BBC2C5",
"]. c #BDC4CA",
"[. c #BECCCD",
"{. c #BFCAD0",
"}. c #C4C6CB",
"|. c #C3CCCE",
" X c #CBCCCE",
".X c #C4C2C7",
"XX c #C4CED2",
"oX c #C9CDD2",
"OX c #C4D1D2",
"+X c #CBD4D4",
"@X c #C9D2DB",
"#X c #D4D9DA",
"$X c #CED0CE",
"%X c #E1DBD9",
"&X c #D6E3DC",
"*X c #E3E4DB",
"=X c #F9EDDD",
"-X c #DEDCE1",
";X c #D7DAE6",
":X c #CED8E2",
">X c #E3DDE3",
",X c #CFE1E1",
"<X c #DBE2E4",
"1X c #DCE8EA",
"2X c #DEEBF4",
"3X c #ECECE4",
"4X c #E5E4EB",
"5X c #E4EAEC",
"6X c #EBECEC",
"7X c #E6E4E4",
"8X c #F3EDE9",
"9X c #F4ECE5",
"0X c #F4F2EC",
"qX c #FDF6ED",
"wX c #FEFCEC",
"eX c #F5F8EF",
"rX c #E6EDF3",
"tX c #EDEDF3",
"yX c #EDEBFA",
"uX c #F0EEF5",
"iX c #F2EDFC",
"pX c #F8EBF2",
"aX c #E6F3F5",
"sX c #EDF2F5",
"dX c #EDF3FA",
"fX c #EFFCFD",
"gX c #E4F2FF",
"hX c #F3F4F5",
"jX c #FAF6F3",
"kX c #F5FAF5",
"lX c #FCFCF5",
"zX c #F4F4FA",
"xX c #FAF5FB",
"cX c #F6FDFE",
"vX c #F5FBFC",
"bX c #FFFFFB",
"nX c #FEFEFA",
"mX c #F9FFFF",
"MX c #FEFEFE",
"NX c #FDFDFD",
"BX c #EEF1E6",
/* pixels */
"r.r.r.r.r.i.r.i.r.r.r.i.r.r.r.r.r.r.r.r.r.r.i.r.>.>.:.a.-.a.r.6.1.r.r.u.u.w.u.w.r.r.r.r.r.r.r.i.r.r.r.r.r.r.r.r.i.r.r.r.i.r.r.u.",
"r.r.r.r.r.r.r.r.r.r.r.r.r.r.r.r.r.r.i.r.r.r.r.r.r.r.r.p.6.t.r.t.i.a.=.r.i.i.r.i.r.r.r.i.r.r.r.r.r.r.i.r.r.r.r.r.r.r.r.r.r.r.r.r.",
"r.r.r.r.r.r.r.r.r.i.r.r.r.r.i.u.r.r.r.r.r.r.r.i.u.7.6.t.6.1.6.u.r.r.r.r.s.r.i.r.i.r.r.r.r.r.r.r.r.r.r.r.r.i.r.r.r.r.i.r.r.r.i.r.",
"r.r.r.r.r.r.r.u.r.r.r.r.i.r.r.r.i.r.r.r.i.r.r.r.6.6.t.u.u.r.p.p.r.t.t.t.t.1.6.r.r.r.r.r.r.i.r.r.i.r.r.r.r.u.r.i.r.r.r.r.r.r.r.r.",
"r.r.i.r.r.r.r.i.r.r.r.r.r.r.r.r.r.r.r.r.r.r.r.r.-.r.-.:.i.:.a.,.p.r.r.r.r.r.a.r.r.r.r.i.r.r.r.i.u.r.r.i.r.r.r.r.r.r.u.r.i.r.r.r.",
"r.i.r.r.r.r.r.r.r.i.r.r.r.r.r.r.r.r.r.r.r.r.r.r.>.a.:.:.a.r.s.r.i.,.:.i.i.a.a.:.r.r.r.r.r.r.r.r.r.r.r.r.r.r.r.r.r.i.y.r.r.r.r.r.",
"r.i.r.r.r.r.r.r.r.r.r.r.r.r.i.r.r.r.r.r.p.i.r.r.:.r.r.u.f.X.5.5.t.7.d.7.f.7.3.f.r.r.r.r.r.i.r.r.r.i.r.r.r.i.r.r.r.r.r.r.r.r.i.r.",
"r.r.r.i.r.i.r.r.r.r.r.i.r.r.r.r.r.r.r.r.i.r.r.r.r.r.6.0.O.J U U U Q U H Q U Q +.i.r.r.r.r.r.r.r.r.r.r.r.r.r.r.r.r.r.i.r.r.r.r.r.",
"i.r.r.r.i.r.r.r.u.i.r.r.i.r.r.r.r.r.p.r.p.r.p.r.y.-.r.<.( + O . . . . X O @ : { 1.s.i.i.r.8.s.i.r.i.r.r.r.r.r.u.i.r.r.i.r.r.r.r.",
"r.r.r.r.r.r.r.r.r.r.r.r.r.r.r.r.r.r.r.w.r.r.r.r.a.#.f.@.C : # $ # # # * # O 1 ' f.r.i.p.r.8.r.-.r.r.r.r.r.i.r.r.r.r.r.r.r.r.i.r.",
"r.r.i.r.r.r.r.r.r.r.i.r.r.r.r.i.r.p.e.r.r.r.e.r.>.g.x u ^  X]..X}. XW.W._.]./.I O.3.i.i.t.u.r.i.r.r.r.r.r.r.r.r.r.i.r.r.r.r.r.r.",
"r.r.r.r.r.r.i.r.r.r.r.r.r.r.r.r.r.r.r.r.t.r.r.r.:.q.;   A.NXnXvXMXxXNXnXnXxXzXl Q d.p.=.r.t.r.i.r.r.i.r.r.r.i.r.r.r.r.r.r.r.r.r.",
"r.i.r.r.i.u.r.r.r.i.r.r.r.r.r.r.p.r.r.t.r.r.r.r.e.[ s * S.nXkXcXxXMXMX0XhXjXlXB T } u.-.r.6.r.i.r.r.r.r.r.r.r.r.r.r.r.r.i.r.r.r.",
"r.u.r.r.r.r.r.r.r.r.r.r.i.r.r.u.r.w.r.r.r.t.r.r.q.p %XqXlXcXcXnXlXlXlXnXMX3XnXMXE x 8.y.-.r.*.p.i.r.r.u.r.i.r.r.r.i.r.r.r.r.r.r.",
"r.r.r.r.r.r.r.i.r.r.r.r.r.r.r.i.p.r.r.p.e.r.r.u.[ > 9XlXvXcXmXqXmXmXhXmXMXnX0XlXW p #.i.-.p.r.i.r.r.r.i.r.r.r.r.r.r.r.r.r.r.i.r.",
"r.r.r.i.r.r.r.r.r.r.i.r.r.r.r.r.r.r.r.r.r.r.r.u.( m qXqXcXfXvXlXmXmXvXmXhXnX9XlX^.M 4.;.%.r.p.r.r.r.r.r.r.r.r.i.r.r.r.i.u.r.r.r.",
"y.r.r.r.r.i.a.i.r.u.p.i.p.:.-.r.r.u.6.i.>.a.8.) e NXzXkXmXkXmXkXmXnXmXmXcXvXvXNXlX'.1 0.a.:.*.d.i.r.-.i.-.i.y.i.r.r.r.r.r.r.i.r.",
"y.i.r.r.r.i.i.:.6.r.*.6.w.t.u.y.#.t.r.-.,.#.u.( b hXsXmXmXlXnXmXmXmXmXnXmXlXvXvXjX^.- ).r.:.s.7.y.i.i.y.r.r.i.-.r.r.r.r.r.r.r.r.",
"r.r.r.r.r.r.-.r.>.r.r.s.p.r.r.r.i.y.&.i.s.g.) T D.MXvXMXmXvXnXmXlXmXmXmXmXnXmXlXxX>XW ~ 7.i.-.r.i.r.r.r.r.r.r.r.r.r.i.r.r.r.r.i.",
"r.r.r.y.-.r.r.r.>.:.:.p.r.i.:.,.;.>.%.r.#.h.p / MXMXzXMXMXMXnXnXNXNXmXMXMXMXnXmXxXxX;X; q.r.,.u.r.r.r.r.r.r.r.r.r.r.r.r.r.r.r.r.",
"r.r.r.r.r.t.6.t.s.g.7.q.0.f.1.p.;.y.*.r.g.9.7 W MXzXmXMXnXnXMXMXvXMXmXMXMXMXMXmXMXxX4X7  .7.u.;.r.t.t.r.r.6.r.r.i.r.r.r.r.r.r.r.",
"r.r.-.;.%.y.7.<.a u 2 u u d A q.,.i.u.1.7.A ^ pXMXhXMXMXvXnXxXmXhXNXMXMXMXMXMXMXNXNX8X^.c O.r.$.r.r.r.y.r.y.r.y.r.r.r.r.i.r.r.r.",
"p.i.>.-.;.t.7.3.. . . . . + 2 ~.i.u.u.u.d.i P.qXMXNXMXMXMXnXMXMXhXNXMXMXMXMXMXMXvXxXjXNXu ] 6.a.6.6.t.t.6.6.t.t.r.r.i.r.r.r.r.i.",
"e.p.y.;.%.u.3.] * = = = 5 4 y ~.p.g.r.1.X.y P.wXMXMXMXMXMXlXlXlXhXlXMXMXMXxXMXMXmXlX9XpXl _ f.i.t.r.r.6.t.t.r.6.r.r.r.r.r.r.r.r.",
"a.r.1.e.i.w._ I vXjX8X0XBX3X>X5 > 7 ( | u :XvXwXMXMXMXMXMXMXlXhXNXNXMXNXNXlXMXMXNXNXnX*XxX` ( &.6.A 1 X < k h.:.u.y.:.w.t.7.r.;.",
"-.r.p.i.:.7.F s MXMXlXnXlXnX>X$   O z { ; <XnXlXMXmXMXMXMXMXxXhXNXNXNXzXhXxXMXMXNXMXkXBXNXV j 5.9.2 O   . 3 o.d.8.%.:.:.t.7.y.;.",
"-.a.i.:.w.O.T c.vXlXlXkXjXhX7XZ b m V z O <XlXkXMXMXMXMXMXMXNXlXxXxXzXhXzXMXMXMXNXMXkXhXiXv.I ' ' M v v b M ( [ t.-.:.:.r.8.6.y.",
"%.u.:.a.d.S E NXkXkXkXnXmXkXMXsX=XnXN.O o %XnXlXMXMXMXMXMXMXMXMXtXiXhXhXMXMXMXMXNXcXcXdXtXzXv.@ : :XnXlXlX#X6 O <.u.:.>.r.6.r.y.",
"&.y.:.u.O.p W MXnXkXvXvXMXvXMXvXwXlXz..   %XnXzXMXMXMXMXMXMXMXMXuXzXhXhXMXMXMXMXMXMXkXaXsXMXz.  X >XxXqXwX*Xo   [ u.:.:.a.6.r.r.",
"6.;.:.2.Y E +XjXlXkXlXMXMXMXnXkXlXlX+Xz.x.wXMXvXMXMXMXMXMXMXMXMXxXNXzXsXNXNXNXNXMXMXcXfXtXzX$Xx.z.7XnXqXlX3Xz.z.( [ t.:.i.r.r.r.",
"t.i.i.0.p P.MXjXlXlXnXMXxXhXxXlXlXcXcXsX9XlXlXvXMXMXMXMXMXMXMXMXNXMXzXhXNXxXhXlXjXlXmXcXrXtXMXhXnX0XnXnXvXvXlXlXV P 0.y.-.r.i.i.",
"r.a.r.q.+ W.jXlXlXlXxXMXMXNXxXlXmXcXcXaXBXwXMXmXMXMXMXMXMXMXMXMXxXMXxXsXxXlXhXzXMXMXcXsXdXtXsXkXkXkXmXMXxXMXdXvXn d o.r.-.r.i.s.",
"i.=.q.k (.lXNXmXlXMXNXNXxXhXMXMXlXnXjXnXlXhXNXNXMXMXMXMXMXMXMXMXMXMXnXnXMXlXhXlXMXkXvX6XhXuXhXjXlXlXNXNXlXNXxXhX&Xk.L 4.6.%.s.w.",
"r.r.!.; 2XjXMXkXMXMXxXNXvXhXlXMXxXnXzXMXNXdXxXNXMXMXMXMXMXMXMXMXnXMXnXxXnXlXhXzXmXzXdXtXhX3XhXnXNXvXNXNXxXNXvXhXnXk.g d.-.-.1.p.",
"r.u.~ l aXlXMXMXMXMXlXNXlXhXMXMXnXMXhXNXNXsXhXNXMXMXMXMXMXMXMXMXnXMXxXkXlXxXlXhXmXzXtXhXhX6XhXMXMXNXNXNXlXMXmX8XnXc.g d.>.:.s.t.",
"w.5.s ;XkXlXxXwXMXMXzXNXNXlXMXMXMXMXjXzXNXhXtXNXMXMXMXMXMXMXMXMXMXMXnXhXhXMXMXhXzXmXsXhXtXhXxXMXMXxXNXNXMXMXMXhXlXc.p 0.,.,.s.w.",
"i.7.7 MXmXjXMXlXMXMXhXxXMXNXMXMXMXMXlXzXNXdXtXNXMXMXMXMXMXMXMXMXMXMXlXhXhXMXMXzXzXNXrXhXtXkXMXNXMXMXMXMXMXMXMXhXlXk.3 d.%.a.*.i.",
"i.0.t jXcXnXMXlXMXMXkXMXMXNXMXMXxXMXNXzXxXsXtXzXMXMXMXMXMXMXMXMXlXxXzXzXlXMXMXlXvXvX+XzXhXxXMXMXMXMXMXMXMXMXMXhXqXR.M _ u.s.r.t.",
",.5.t MXsXmXMXlXMXNXlXMXMXMXMXmXxXlXMXxXhXhXtXzXMXMXMXMXMXMXMXMXzXhXxXmXNXMXMXNXvX5X^.hXNXlXnXMXMXMXMXMXMXMXNXhXjXxX^.p 0.1.s.-.",
":.0.9 xXcXcXmXnXMXMXlXMXMXNXMXlXhXzXMXxXtXzXtXhXMXMXMXMXMXMXMXMXtXtXNXMXMXMXMXNXkX-XR.tXvXNXMXMXMXMXMXMXNXMXlXzX7XNX^.- q.6.p.i.",
"u.t.r xXvXlXMXMXMXMXMXMXMXMXMXjXzXtXNXMX6XtXsXhXhXmXmXMXnXMXMXNXlXuXhXMXMXvXzXvX<X'.7XsXNXzXnXMXMXMXMXlXzXMXxXzXxXiX2Xc.E @.f.;.",
"6.t.r xXcXlXNXMXMXMXMXMXMXMXMXhXtXtXiXNX6XhXsXkXhXvXMXmXmXMXMXNXMXzXxXMXMXmXvXzX+X'.6XkXMXlXnXlXnXMXlXzXzXxXzXtX4XxXvXiX> +.7.y.",
"-.6.t pXcXlXMXNXMXMXNXMXMXMXMXhXiXzXzXNXhXkX5XsXhXnXmXNXmXMXMXlXNXzXxXcXmXmXzX5X|.'.sXvXMXlXnXnXnXnXxXlXlXzXuXuXzXiXuXxX- @.d.%.",
"r.6.,  XaXlXNXNXMXNXNXMXMXMXMXhXuXhXuXzXtXsX X+XvXmXmXMXMXNXNXzXiXhXtXzXsXhXsX#XT.'.cXkXmXnXnXnXnXMXMXMXNXzXuXhXuXyXiX#X,  .0.r.",
"u.t.< W.aXlXMXnXMXMXNXMXMXMXMX0XtXzXtXzXhXsX].}.vXcXmXmXNXNXxXhXtXuXtXtXtXsXtXoXZ.'.mXnXmXMXnXlXnXnXMXMXxXhXuXhXyXyXkXjX# +.4.p.",
"r.8., W.,XkXmXMXMXNXNXMXMXMXMXuXzXxXyXzXtXzX.XoXzXvXNXNXNXNXzXzXhXhXtXiXsXzXyXoXZ.'.mXsXMXMXnXxXnXnXxXmXhXuXtXuXxXzX1X*X% !.0.p.",
"t.%.& K.U.3XvXMXNXNXMXMXMXNXMXhXiXzXtXdXtXzX'.oXkXzXhXzXzXzXzXhXzXzXiXvXuXzXzXoXH.|.kX6XkXnXnXnXlXnXnXlXhXtXuXuXgXyX1XF.% { 3.p.",
"r.6., .XY.BXmXzXNXMXNXMXNXlXMXhXyXyXyXxXtXNX}.+XvXzXsXtXuXuXuXhXiXuXtXuXtXdXdXoXZ.'.sX6XMXMXnXlXnXMXMXmXhXuXuXzXgXfX1XG.. ..3.e.",
"r.8.H Z S.$X&XsXlXnXNXNXNXxXxXdXxXiXuXzXzX#X`.[.,X#XvXdXsXdXtXtXyXdXyXyXsXfXdX].H.'.#XsXvXmXmXMXxXNXxXzXzXzXzXvXgX@X#XE.> ~.4.8.",
"%.u. .: A.F.M.Q.MXmXNXNXvXdXsXtXzXhXiXzX4X^.C.Y.H.T.rXaXdXtXdXzXzXxXdXvXsXdXdX[.Z.L.'.5XcXMXmXmXzXzXzXyXdXyXyXdX/.H.F.U.@ ).0.y.",
"a.r.q.; Z.Q.F.|.mXMXmXvXfXsXaXaXsXaXfXfX1X`.C.Y.H.`.rXvXfXvXvXvXgXvXaXdXaXaXaXOXI.L.`.<XcXmXvXvXdXzXsXsXaXdXdXdX+XT.T.B.2 } e.u.",
":.e.h.' l l.F.Q.+X+X+X+XOXOXOXXX[.[.[.[.[.`.C.Q.Y.U.[.XXXXXX].}.{.XXXXOX{.{.OXU.D.Z.I.[.OX+X+X+XOX|.XX|.XXXXOXXXT.A.n.z ( h.t.w.",
"i.p.2.).: ^ |.D.L.D.D.D.L.L.L.Y.U.U.D.L.U.U.U.U.U.I.I.P.H.I.P.P.Y.I.Y.I.L.U.U.I.Y.U.T.U.P.P.P.P.P.F.G.P.P.P.L.I.E.Q.` 3 q.d.w.p.",
"i.p.p.e.j E M.m.M.M.B.M.A.M.B.B.V.B.B.n.V.B.M.M.M.M.N.B.m.A.m.A.N.C.N.N.m.m.N.A.B.Z.Z.N.m.A.A.z.m.A.A.A.m.m.N.N.G.M./ f d.p.r.r.",
"u.e.p.p.o.I e 6 8 8 0 0 0 6 0 6 0 q t 0 9 0 9 9 9 0 0 q 9 q 9 q e e 6 6 q 9 8 q 6 9 9 9 q q q q 8 q q q q q e q w 6 R o.r.i.r.8.",
"&.g.e.:.8.R . .               .                 . .   .   . . .       .       X       X                 .       X . z q.:.:.8.8.",
":.r.r.f.<.) H H D D G G S D G S G G G D S S S S D D D G D G G G D D G G D G D D D D D D D D D D D D D D D D D D H K ) <.7.t.i.,.",
"i.r.r.t.f.<.o.9.7.5.<.7.7.7.7.7.7.7.7.2.<.2.<.2.<.6.2.7.7.7.7.7.7.7.<.7.7.7.7.7.7.5.5.5.7.5.7.5.7.5.7.7.<.8.5.5.4.O.5.f.t.t.u.r.",
"r.r.w.6.t.6.t.d.i.a.i.a.a.:.i.i.a.a.i.i.a.i.i.i.i.i.i.i.a.i.i.i.i.a.i.i.i.i.i.:.i.i.i.i.i.i.i.i.i.i.r.p.r.i.i.i.d.7.6.t.r.w.r.r.",
"w.r.r.w.r.r.w.r.r.-.i.-.i.r.r.i.r.r.i.r.r.i.;.i.r.r.r.r.r.r.r.t.r.-.-.i.-.-.r.i.-.r.-.r.y.-.;.r.r.r.r.r.r.r.r.r.*.r.r.w.w.r.r.r.",
"u.r.p.r.r.i.a.a.t.t.7.r.t.8.y.t.r.6.r.6.6.t.t.t.r.%.y.%.r.%.8.;.7.r.6.r.t.y.6.t.r.r.6.t.6.r.6.r.6.r.%.8.-.8.;.y.i.a.i.i.r.p.r.r.",
"r.w.r.r.r.w.i.-.r.r.r.r.r.r.r.r.r.r.r.r.y.r.r.r.r.r.y.r.r.r.:.r.r.r.r.r.r.r.r.r.r.r.r.r.r.r.r.i.r.-.y.>.r.i.y.r.:.i.r.r.r.r.r.r.",
"r.*.r.r.r.r.r.r.y.r.r.r.r.r.r.i.r.r.r.r.r.i.r.r.u.p.r.p.t.t.w.t.i.r.r.r.r.r.r.y.r.r.p.r.r.r.r.p.p.e.r.p.p.e.p.t.t.r.t.p.p.r.r.r.",
"i.:.r.p.r.2.7.7.r.r.r.t.r.r.t.t.u.p.t.t.u.r.t.t.r.r.r.r.r.r.r.r.r.t.r.t.t.t.r.r.p.r.e.r.t.p.t.p.r.r.r.r.t.r.r.r.t.3.1.u.r.i.i.i."
};
